<?xml version="1.0" encoding="utf-8"?>
<!-- Generator: Adobe Illustrator 26.1.0, SVG Export Plug-In . SVG Version: 6.00 Build 0)  -->
<svg version="1.1" id="Layer_1" xmlns="http://www.w3.org/2000/svg" xmlns:xlink="http://www.w3.org/1999/xlink" x="0px" y="0px"
	 viewBox="0 0 2751.99 322.81" style="enable-background:new 0 0 2751.99 322.81;" xml:space="preserve">
<style type="text/css">
	.st0{fill:#F24646;}
	.st1{fill:#00D0C2;}
	.st2{fill:#FDFFD0;}
	.st3{fill:#D4B783;}
	.st4{fill:#89634A;}
</style>
<g>
	<g>
		<path class="st0" d="M273.31,66.96c1.52,0.52,3.08,0.71,4.6,0.63c1.86-1.42,3.33-3.38,4.14-5.75c2.18-6.38-1.24-13.34-7.62-15.52
			c-1.52-0.52-3.08-0.71-4.6-0.63c-1.86,1.42-3.33,3.38-4.14,5.75C263.52,57.82,266.93,64.78,273.31,66.96z"/>
		<polygon class="st1" points="153.28,164.29 152.74,168.91 145.71,229.13 163.22,235.1 177.2,172.46 		"/>
		<polygon class="st1" points="236.98,192.87 235.51,197.18 216.37,253.25 234.1,259.31 261.24,201.15 		"/>
		<polygon class="st1" points="195.1,178.57 194.09,183.03 181,241.18 199.11,247.36 219.52,186.91 		"/>
		<polygon class="st1" points="278.94,207.2 277,211.35 251.8,265.35 270.34,271.68 303.24,215.5 		"/>
		<path class="st2" d="M324.28,178.71l-7.45-2.54c-2.21-0.76-3.83-2.67-4.19-4.98c-0.37-2.31,0.57-4.63,2.44-6.04
			c2.69-2.02,4.43-4.88,5.79-7.98c3.66-8.36,1.38-16.1-3.91-23.86l-13.59-4.64L237.3,106.1c-3.3-1.13-5.06-4.71-3.93-8.01
			c0.2-0.57,0.47-1.09,0.8-1.57c1.57-2.25,4.49-3.3,7.22-2.37l58.44,19.96c0.31-0.63,0.59-1.28,0.82-1.96
			c2.99-8.75-1.7-18.3-10.45-21.29l-55.46-18.94c-2.55-0.87-5.17-1.09-7.67-0.74c-3.09,1.97-5.56,4.96-6.84,8.7
			c-1.09,3.2-1.2,6.61-0.3,9.85c0.62,2.25-0.06,4.67-1.76,6.27c-1.59,1.5-3.84,2.05-5.93,1.49c-0.15-0.04-0.29-0.07-0.43-0.12
			l-13.82-4.72c-5.02-1.71-10.29-0.9-14.45,1.75c-3.09,1.97-5.57,4.96-6.84,8.7c-0.75,2.19-1.02,4.48-0.84,6.75l126.35,43.14
			c3.3,1.13,5.06,4.71,3.93,8.01c-1.08,3.15-4.4,4.89-7.57,4.06c-0.15-0.04-0.29-0.08-0.44-0.13l-137.3-46.88
			c-5.02-1.71-10.29-0.9-14.45,1.75c-3.09,1.97-5.57,4.96-6.84,8.7c-2.99,8.75,1.7,18.3,10.45,21.29l170.26,58.14
			c2.55,0.87,5.17,1.09,7.67,0.74c3.09-1.97,5.56-4.96,6.84-8.7C337.72,191.25,333.03,181.7,324.28,178.71z"/>
	</g>
	<path d="M336.7,164.85c1.19-1.9,2.16-3.94,2.9-6.1c5.24-15.34-2.98-32.08-18.32-37.31l-4.79-1.64c1.18-1.89,2.14-3.92,2.87-6.06
		c5.24-15.34-2.98-32.08-18.32-37.31l-7.27-2.48c3.11-2.76,5.57-6.32,7-10.52c3.66-10.72-0.46-22.24-9.32-28.42
		c6.41-11.07,19.98-16.47,32.54-12.18c3.3,1.13,6.89-0.63,8.01-3.93s-0.64-6.89-3.93-8.01c-19.08-6.52-39.75,2.27-48.61,19.77
		c-11.13-0.99-21.95,5.68-25.71,16.72c-1.44,4.2-1.67,8.53-0.9,12.61l-7.27-2.48c-15.34-5.24-32.08,2.98-37.31,18.32
		c-0.73,2.14-1.21,4.34-1.43,6.55l-4.79-1.64c-15.34-5.24-32.08,2.98-37.31,18.32c-0.74,2.16-1.22,4.37-1.44,6.6
		c-14.89-4.17-30.67,4-35.72,18.81c-4.66,13.66,1.35,28.42,13.55,35.19l-8.54,73.08c-0.34,2.95,1.42,5.74,4.23,6.71l34.73,11.86
		c0,0,0.01,0,0.01,0c0,0,0.01,0,0.01,0l69.5,23.73c0,0,0.01,0,0.01,0c0,0,0.01,0,0.01,0l34.73,11.86c2.81,0.96,5.91-0.17,7.45-2.72
		l37.94-63.04c13.8,2.11,27.58-5.89,32.25-19.55C358.51,186.78,351.03,170.66,336.7,164.85z M269.84,45.69
		c3.14-2.39,7.37-3.23,11.37-1.86c6.38,2.18,9.79,9.14,7.62,15.52c-1.66,4.85-6.09,7.98-10.92,8.25c-1.52,0.08-3.07-0.11-4.6-0.63
		c-6.38-2.18-9.79-9.14-7.62-15.52C266.5,49.07,267.98,47.1,269.84,45.69z M163.22,235.1l-17.51-5.98l7.03-60.21l0.54-4.62
		l23.91,8.17l5.89,2.01l-14.09,62.61L163.22,235.1z M204.42,249.17l-5.31-1.81L181,241.18l13.09-58.14l1-4.46l24.42,8.34l5.52,1.88
		L204.42,249.17L204.42,249.17z M239.78,261.25l-4.84-1.65l-0.84-0.29l-17.73-6.06l19.15-56.07l1.47-4.31l24.25,8.28l5.69,1.94
		L239.78,261.25z M275.08,273.3l-4.38-1.49l-0.36-0.12l-18.54-6.33l25.2-54.01l1.94-4.15l24.3,8.3l5.5,1.88L275.08,273.3z
		 M327.89,208.7c-2.5,0.34-5.12,0.13-7.67-0.74l-170.26-58.14c-8.75-2.99-13.44-12.54-10.45-21.29c1.27-3.73,3.75-6.72,6.84-8.7
		c4.15-2.65,9.43-3.47,14.45-1.75l137.3,46.88c0.15,0.05,0.29,0.09,0.44,0.13c3.17,0.83,6.5-0.91,7.57-4.06
		c1.13-3.3-0.64-6.89-3.93-8.01l-126.35-43.14c-0.18-2.27,0.09-4.56,0.84-6.75c1.27-3.73,3.75-6.72,6.84-8.7
		c4.15-2.65,9.43-3.46,14.45-1.75l13.82,4.72c0.14,0.05,0.29,0.08,0.43,0.12c2.1,0.55,4.34,0.01,5.93-1.49
		c1.7-1.6,2.38-4.02,1.76-6.27c-0.89-3.25-0.79-6.65,0.3-9.85c1.27-3.73,3.75-6.72,6.84-8.7c4.15-2.65,9.43-3.46,14.45-1.75
		l55.46,18.94c8.75,2.99,13.44,12.54,10.45,21.29c-0.75,2.19-1.93,4.17-3.47,5.86l-4.12-1.41l-58.44-19.96
		c-2.73-0.93-5.65,0.11-7.22,2.37c-0.33,0.47-0.6,0.99-0.8,1.57c-1.13,3.3,0.63,6.89,3.93,8.01l66.08,22.56l13.59,4.64l0.23,0.08
		c8.75,2.99,13.44,12.54,10.45,21.29c-1.09,3.2-3.09,5.96-5.79,7.98c-1.87,1.4-2.81,3.73-2.44,6.04c0.37,2.31,1.98,4.23,4.19,4.98
		l7.45,2.54c8.75,2.99,13.44,12.54,10.45,21.29C339.39,203.71,333.98,207.86,327.89,208.7z"/>
</g>
<g>
	<g>
		<path class="st3" d="M229.19,201.07c-4.37,1.97-9.14,3-14.04,3c-5.82,0-11.57-1.5-16.64-4.35c-9.46-5.31-15.55-14.81-16.53-25.18
			c-10.72-0.95-20.45-6.93-25.88-16.09c-5.46-9.2-5.86-20.38-1.38-29.84c-6.86-4.69-11.64-11.71-13.4-19.69
			c-23.35,0.73-44.79,8.94-61.88,22.22c4.48,4.22,7.13,10.09,7.13,16.42c0,8.1-4.35,15.23-10.9,19.29
			c-3.65,2.27-7.98,3.59-12.62,3.59c-3.27,0-6.46-0.66-9.4-1.91c-0.01,0.01-0.03,0.03-0.04,0.04c-1.1,2.96-2.06,5.99-2.88,9.07
			c-2.18,8.21-3.35,16.82-3.35,25.69c0,56.63,47.35,102.7,105.56,102.7c23.02,0,44.34-7.22,61.71-19.44c0.37-0.32,0.84-0.66,1.38-1
			c6.5-4.73,12.44-10.17,17.67-16.2c-6.05-4.22-9.89-11.12-9.89-18.63c0-4.99,1.65-9.6,4.44-13.36c4.11-5.54,10.7-9.22,18.17-9.49
			c0.29-0.02,0.59-0.03,0.9-0.03c0.23,0,0.45,0.01,0.68,0.01c0.79-4.51,1.27-9.12,1.43-13.8
			C241.23,212.4,234.01,207.74,229.19,201.07z M110.35,272.2c-7.33,0-13.89-3.28-18.21-8.42c-3.48-3.99-5.59-9.15-5.59-14.78
			c0-12.62,10.55-22.88,23.52-22.88c7.33,0,13.89,3.28,18.21,8.42c3.48,3.99,5.59,9.15,5.59,14.78
			C133.87,261.94,123.32,272.2,110.35,272.2z M125.89,189.83c-7.33,0-13.89-3.28-18.21-8.42c-3.48-3.99-5.59-9.15-5.59-14.78
			c0-12.62,10.55-22.88,23.52-22.88c7.33,0,13.89,3.28,18.21,8.42c3.48,3.99,5.59,9.15,5.59,14.78
			C149.41,179.56,138.86,189.83,125.89,189.83z M174.48,261.28c-9.42,0-17.84-4.21-23.39-10.8c-4.44-5.12-7.12-11.73-7.12-18.94
			c0-16.22,13.57-29.42,30.24-29.42c9.42,0,17.84,4.21,23.39,10.8c4.44,5.12,7.12,11.73,7.12,18.94
			C204.72,248.09,191.16,261.28,174.48,261.28z"/>
		<path class="st4" d="M125.62,178.62c6.79,0,12.32-5.38,12.32-11.99s-5.53-11.99-12.32-11.99s-12.32,5.38-12.32,11.99
			S118.82,178.62,125.62,178.62z"/>
		<path class="st4" d="M110.07,260.99c6.79,0,12.32-5.38,12.32-11.99s-5.53-11.99-12.32-11.99c-6.79,0-12.32,5.38-12.32,11.99
			C97.75,255.61,103.28,260.99,110.07,260.99z"/>
		<path class="st4" d="M75.37,147.56c0-3.54-1.59-6.81-4.24-9.04c-5.13,6.11-9.54,12.81-13.13,19.97c1.57,0.69,3.29,1.06,5.05,1.06
			C69.84,159.55,75.37,154.17,75.37,147.56z"/>
		<path class="st4" d="M235.01,250.77c0,4.04,2.12,7.75,5.45,9.93c4.55-6.55,8.34-13.63,11.26-21.14c-1.38-0.51-2.86-0.79-4.38-0.79
			C240.54,238.79,235.01,244.16,235.01,250.77z"/>
		<path class="st4" d="M174.21,250.07c10.5,0,19.04-8.31,19.04-18.53c0-10.22-8.54-18.53-19.04-18.53
			c-10.5,0-19.04,8.31-19.04,18.53C155.17,241.76,163.71,250.07,174.21,250.07z"/>
	</g>
	<g>
		<path class="st4" d="M143.82,152.16c3.32,3.95,5.31,8.98,5.31,14.47c0,12.62-10.55,22.88-23.52,22.88
			c-7.18,0-13.62-3.15-17.93-8.1c4.32,5.13,10.87,8.42,18.21,8.42c12.97,0,23.52-10.27,23.52-22.88
			C149.41,161.31,147.31,156.15,143.82,152.16z"/>
		<path class="st4" d="M133.59,249c0,12.62-10.55,22.88-23.52,22.88c-7.18,0-13.62-3.15-17.93-8.1c4.32,5.13,10.87,8.42,18.21,8.42
			c12.97,0,23.52-10.27,23.52-22.88c0-5.63-2.11-10.79-5.59-14.78C131.6,238.48,133.59,243.52,133.59,249z"/>
		<path class="st4" d="M204.45,231.55c0,16.22-13.57,29.42-30.24,29.42c-9.26,0-17.56-4.08-23.12-10.48
			c5.55,6.59,13.97,10.8,23.39,10.8c16.67,0,30.24-13.2,30.24-29.42c0-7.21-2.68-13.82-7.12-18.94
			C201.88,218,204.45,224.49,204.45,231.55z"/>
		<path d="M125.62,189.51c12.97,0,23.52-10.27,23.52-22.88c0-5.48-1.99-10.52-5.31-14.47c-4.32-5.13-10.87-8.42-18.21-8.42
			c-12.97,0-23.52,10.27-23.52,22.88c0,5.63,2.11,10.79,5.59,14.78C112,186.36,118.44,189.51,125.62,189.51z M125.62,154.64
			c6.79,0,12.32,5.38,12.32,11.99s-5.53,11.99-12.32,11.99s-12.32-5.38-12.32-11.99S118.82,154.64,125.62,154.64z"/>
		<path d="M110.07,271.89c12.97,0,23.52-10.27,23.52-22.88c0-5.48-1.99-10.52-5.31-14.47c-4.32-5.13-10.87-8.42-18.21-8.42
			c-12.97,0-23.52,10.27-23.52,22.88c0,5.63,2.11,10.79,5.59,14.78C96.46,268.74,102.89,271.89,110.07,271.89z M110.07,237.02
			c6.79,0,12.32,5.38,12.32,11.99s-5.53,11.99-12.32,11.99c-6.79,0-12.32-5.38-12.32-11.99S103.28,237.02,110.07,237.02z"/>
		<path d="M269.69,202.31l-0.01-0.45c-0.04-2.88-2.36-5.23-5.32-5.37c-8.33-0.41-15.68-5.25-19.19-12.64
			c-0.7-1.47-2.03-2.56-3.63-2.98c-1.61-0.42-3.32-0.12-4.68,0.81c-3.76,2.58-8.36,4-12.96,4c-3.9,0-7.76-1.01-11.16-2.92
			c-7.54-4.23-11.9-12.42-11.11-20.87c0.15-1.61-0.44-3.2-1.62-4.35c-1.18-1.14-2.82-1.72-4.47-1.57c-0.67,0.06-1.35,0.09-2.02,0.09
			c-7.99,0-15.44-4.17-19.42-10.9c-4.35-7.33-3.92-16.55,1.11-23.47c0.96-1.32,1.26-2.99,0.83-4.55c-0.43-1.56-1.55-2.86-3.06-3.54
			c-7.59-3.41-12.56-10.56-12.99-18.66c-0.15-2.87-2.57-5.13-5.52-5.17l-0.46-0.01c-0.36-0.01-0.72-0.01-1.07-0.01
			c-64.38,0-116.76,50.96-116.76,113.6s52.38,113.6,116.76,113.6s116.76-50.96,116.76-113.6C269.7,203,269.7,202.65,269.69,202.31z
			 M71.13,138.52c2.65,2.24,4.24,5.5,4.24,9.04c0,6.61-5.53,11.99-12.32,11.99c-1.76,0-3.47-0.38-5.05-1.06
			C61.59,151.32,66.01,144.63,71.13,138.52z M240.46,260.71c-3.32-2.19-5.45-5.89-5.45-9.93c0-6.61,5.53-11.99,12.32-11.99
			c1.53,0,3,0.27,4.38,0.79C248.8,247.08,245.01,254.16,240.46,260.71z M255.12,229.19c-2.28-0.78-4.68-1.21-7.11-1.28
			c-0.23-0.01-0.45-0.01-0.68-0.01c-0.3,0-0.6,0.02-0.9,0.03c-7.47,0.28-14.06,3.96-18.17,9.49c-2.79,3.76-4.44,8.38-4.44,13.36
			c0,7.51,3.83,14.41,9.89,18.63c-5.23,6.04-11.16,11.47-17.67,16.2c-0.46,0.34-0.92,0.68-1.38,1
			c-17.37,12.22-38.69,19.44-61.71,19.44c-58.21,0-105.56-46.07-105.56-102.7c0-8.87,1.17-17.48,3.35-25.69
			c0.82-3.08,1.78-6.11,2.88-9.07c0.01-0.02,0.01-0.04,0.02-0.05c0.01,0,0.02,0.01,0.02,0.01c2.94,1.25,6.13,1.91,9.4,1.91
			c4.64,0,8.97-1.32,12.62-3.59c6.55-4.07,10.9-11.19,10.9-19.29c0-6.33-2.65-12.2-7.13-16.42c-0.25-0.24-0.51-0.47-0.77-0.7
			c18.33-17.68,43.27-28.88,70.84-29.74c1.77,8.04,6.59,15.12,13.5,19.84c-4.52,9.53-4.11,20.8,1.39,30.07
			c5.47,9.22,15.28,15.25,26.08,16.21c0.99,10.45,7.13,20.02,16.66,25.37c5.1,2.87,10.9,4.38,16.76,4.38
			c4.94,0,9.74-1.03,14.14-3.02c4.86,6.73,12.13,11.41,20.4,13.13C258.19,214.43,257.05,221.96,255.12,229.19z"/>
		<path d="M174.21,260.97c16.67,0,30.24-13.2,30.24-29.42c0-7.06-2.57-13.55-6.85-18.63c-5.55-6.59-13.97-10.8-23.39-10.8
			c-16.67,0-30.24,13.2-30.24,29.42c0,7.21,2.68,13.82,7.12,18.94C156.64,256.89,164.95,260.97,174.21,260.97z M174.21,213.02
			c10.5,0,19.04,8.31,19.04,18.53c0,10.21-8.54,18.53-19.04,18.53c-10.5,0-19.04-8.31-19.04-18.53
			C155.17,221.33,163.71,213.02,174.21,213.02z"/>
	</g>
</g>
<g>
	<path d="M493.34,103.55c14.99,0,27.92,2.69,38.77,8.05c17.57,9.28,25.07,19.77,22.49,31.48c-1.04,7.32-5.95,12.21-14.73,14.64
		c-7.75,1.96-14.22,0.25-19.39-5.13c-7.24-10.25-18.87-14.4-34.89-12.45c-1.04,0-1.81,0.25-2.33,0.73
		c-8.79,0.98-14.73,5.13-17.83,12.45c-1.55,3.91-1.04,8.05,1.55,12.45c6.2,3.91,16.28,5.62,30.24,5.13c8.27,0,14.47,0.49,18.61,1.46
		c16.54,1.46,29.98,9.28,40.32,23.43c6.72,8.79,9.82,18.3,9.31,28.56c0.52,15.62-6.2,28.56-20.16,38.81
		c-5.69,3.91-11.63,6.84-17.83,8.79c-27.4,8.29-51.7,8.29-72.89,0c-17.06-7.81-27.14-17.08-30.24-27.82
		c-2.07-8.29,1.29-14.88,10.08-19.77c8.27-4.88,15.76-4.63,22.49,0.73c1.03,0.49,1.81,0.98,2.33,1.46
		c8.78,10.74,24.29,14.4,46.53,10.98c8.78-0.49,14.73-3.66,17.83-9.52c2.07-3.42,2.07-7.08,0-10.98
		c-4.65-4.88-12.93-7.32-24.81-7.32c-25.85,0.98-44.72-3.9-56.61-14.64c-12.93-10.25-18.87-23.67-17.83-40.27
		c0-10.74,3.36-20.26,10.08-28.56c11.89-15.62,31.02-23.18,57.38-22.7H493.34z"/>
	<path d="M595.69,176.03c0-17.08,5.43-31.97,16.28-44.66c12.92-15.62,31.79-23.43,56.61-23.43c37.22,3.42,60.22,19.28,69.01,47.59
		c1.55,6.35,2.58,13.18,3.1,20.5v83.47c0,7.81-3.88,13.43-11.63,16.84c-3.1,1.46-5.95,2.2-8.53,2.2c-8.79,0-14.73-3.9-17.83-11.71
		c-1.04-2.44-1.55-4.88-1.55-7.32v-83.47c-1.04-18.06-11.89-28.06-32.57-30.02c-17.58,0-28.18,7.81-31.79,23.43
		c-0.52,2.44-0.78,4.64-0.78,6.59v83.47c0,7.81-4.14,13.43-12.41,16.84c-2.07,1.46-4.65,2.2-7.75,2.2c-8.79,0-14.99-3.9-18.61-11.71
		c-1.04-2.44-1.55-4.88-1.55-7.32V176.03z"/>
	<path d="M909.74,277.81c-4.14,4.39-9.31,6.34-15.51,5.86c-9.31-0.49-15.51-4.64-18.61-12.45c-16.03,7.81-33.6,8.79-52.73,2.93
		c-4.65-1.95-9.05-4.15-13.18-6.59c-17.06-10.25-27.92-25.63-32.57-46.13c-7.24-32.22-2.85-59.55,13.18-82.01
		c14.47-18.54,33.34-27.82,56.61-27.82c9.82,0,19.64,2.44,29.47,7.32c4.65,2.44,9.04,5.37,13.18,8.79
		c15.51,13.18,24.04,31.24,25.59,54.18v74.68C915.17,266.34,913.36,273.42,909.74,277.81z M836.85,152.6
		c-10.34,2.93-16.54,9.28-18.61,19.04c-4.14,14.64-4.14,29.53,0,44.66c0,1.96,0.52,3.91,1.55,5.86
		c4.13,9.28,11.37,14.64,21.71,16.11c6.2,0.49,11.11,0.25,14.73-0.73c10.34-3.9,16.28-13.91,17.84-30.02
		c0.51-22.45-1.04-36.85-4.65-43.2c-5.69-8.79-13.7-13.18-24.04-13.18C842.79,151.14,839.95,151.63,836.85,152.6z"/>
	<path d="M1026.05,104.28c16.02,0,30.5,3.91,43.42,11.72c6.72,4.39,10.08,10.25,10.08,17.57c-1.04,7.81-5.17,13.43-12.41,16.84
		c-7.24,2.93-13.96,2.2-20.16-2.2c-5.69-2.93-12.67-4.39-20.94-4.39c-6.72,0-13.18,1.71-19.39,5.12
		c-11.38,7.32-17.06,21.23-17.06,41.74v0.73c0,21.97,5.43,36.37,16.28,43.2c5.68,3.42,12.41,5.12,20.16,5.12
		c8.27,0,15.25-1.7,20.94-5.12c6.2-4.88,12.92-5.61,20.16-2.2c7.23,3.42,11.37,9.03,12.41,16.84c0,7.81-3.36,13.43-10.08,16.84
		c-12.93,8.3-27.4,12.45-43.42,12.45c-16.03,0-29.99-3.9-41.87-11.71c-23.78-14.15-35.67-39.54-35.67-76.15
		c0-31.24,10.08-54.67,30.24-70.29C991.67,109.65,1007.44,104.28,1026.05,104.28z"/>
	<path d="M1129.96,33.25c5.68,0,10.6,1.96,14.73,5.86c4.13,3.91,6.2,8.55,6.2,13.91v107.63l65.91-59.31
		c6.72-5.86,14.47-7.08,23.26-3.66c2.07,0.98,4.13,2.44,6.2,4.39c6.2,6.35,7.49,13.43,3.88,21.23c-1.55,2.44-3.1,4.64-4.65,6.59
		l-48.08,42.47l58.16,74.68c5.68,7.32,5.94,14.64,0.78,21.97c-1.55,1.96-3.36,3.66-5.43,5.12c-7.24,5.37-14.99,5.61-23.26,0.73
		c-2.07-0.97-3.88-2.44-5.43-4.39l-55.06-71.02l-16.28,14.64v44.66c0,7.32-3.36,12.94-10.08,16.84c-7.24,3.9-14.22,3.9-20.94,0
		c-6.72-3.9-10.08-9.52-10.08-16.84V53.02c0-8.29,3.88-14.15,11.63-17.57C1124.01,33.99,1126.86,33.25,1129.96,33.25z"/>
	<path d="M1488.98,104.28c16.02,0,30.5,3.91,43.42,11.72c6.72,4.39,10.08,10.25,10.08,17.57c-1.04,7.81-5.17,13.43-12.41,16.84
		c-7.24,2.93-13.96,2.2-20.16-2.2c-5.69-2.93-12.67-4.39-20.94-4.39c-6.72,0-13.18,1.71-19.39,5.12
		c-11.38,7.32-17.06,21.23-17.06,41.74v0.73c0,21.97,5.43,36.37,16.28,43.2c5.68,3.42,12.41,5.12,20.16,5.12
		c8.27,0,15.25-1.7,20.94-5.12c6.2-4.88,12.92-5.61,20.16-2.2c7.23,3.42,11.37,9.03,12.41,16.84c0,7.81-3.36,13.43-10.08,16.84
		c-12.93,8.3-27.4,12.45-43.42,12.45c-16.03,0-29.99-3.9-41.87-11.71c-23.78-14.15-35.67-39.54-35.67-76.15
		c0-31.24,10.08-54.67,30.24-70.29C1454.6,109.65,1470.37,104.28,1488.98,104.28z"/>
	<path d="M1695.25,116.73c23.26,16.6,34.89,41.49,34.89,74.68c0,35.64-11.63,60.77-34.89,75.42c-12.93,7.81-27.4,11.71-43.42,11.71
		c-18.09,0-34.12-4.88-48.08-14.64c-19.65-15.62-29.21-39.78-28.69-72.49c0-34.65,11.63-59.31,34.89-73.95
		c12.41-8.29,26.37-12.45,41.87-12.45C1668.36,105.01,1682.84,108.92,1695.25,116.73z M1651.82,240.47c25.33,0,38-16.35,38-49.06
		c0-31.72-12.67-47.59-38-47.59c-6.72,0-13.18,1.96-19.39,5.86c-11.38,6.84-17.06,20.75-17.06,41.73v2.93
		C1615.38,225.09,1627.52,240.47,1651.82,240.47z"/>
	<path d="M1805.36,259.5c0,2.44-0.52,4.88-1.55,7.32c-3.62,7.32-9.83,10.98-18.61,10.98c-3.1,0-5.95-0.49-8.53-1.46
		c-7.75-3.42-11.63-9.03-11.63-16.84V58.88c0-3.42,0.51-6.34,1.55-8.79c4.13-7.32,10.33-10.98,18.61-10.98
		c3.1,0,5.68,0.49,7.75,1.46c8.27,3.42,12.41,9.52,12.41,18.31V259.5z"/>
	<path d="M1883.67,259.5c0,2.44-0.52,4.88-1.55,7.32c-3.62,7.32-9.83,10.98-18.61,10.98c-3.1,0-5.95-0.49-8.53-1.46
		c-7.75-3.42-11.63-9.03-11.63-16.84V58.88c0-3.42,0.51-6.34,1.55-8.79c4.13-7.32,10.33-10.98,18.61-10.98
		c3.1,0,5.68,0.49,7.75,1.46c8.27,3.42,12.41,9.52,12.41,18.31V259.5z"/>
	<path d="M2033.33,233.88c6.2-4.88,13.18-6.1,20.94-3.66c6.72,2.93,10.6,8.3,11.63,16.11c1.55,7.32-1.04,13.18-7.75,17.57
		c-7.24,5.86-16.28,10.01-27.14,12.45c-7.75,1.46-20.68,1.96-38.77,1.46c-12.93,0-25.59-4.15-38-12.45
		c-22.75-15.62-34.89-39.29-36.45-71.02c-0.52-2.44-0.52-5.12,0-8.05c1.55-33.19,13.7-56.87,36.45-71.02
		c12.41-8.29,26.62-12.45,42.65-12.45c11.89,0,22.49,2.44,31.79,7.32c24.81,14.64,37.22,39.05,37.22,73.22v7.32
		c0,2.44-0.52,4.88-1.55,7.32c-3.1,7.81-9.3,11.72-18.61,11.72h-84.52c3.62,16.6,13.96,26.12,31.02,28.56h6.98
		C2017.3,238.27,2028.68,236.81,2033.33,233.88z M1994.56,142.35h-2.33c-4.65,0-9.83,1.46-15.51,4.39
		c-8.28,5.37-13.44,13.43-15.51,24.16h63.59v-1.46c-2.07-12.2-7.24-20.26-15.51-24.16c-3.62-1.95-8.01-2.93-13.18-2.93H1994.56z"/>
	<path d="M2177.56,104.28c16.02,0,30.5,3.91,43.42,11.72c6.72,4.39,10.08,10.25,10.08,17.57c-1.04,7.81-5.17,13.43-12.41,16.84
		c-7.24,2.93-13.96,2.2-20.16-2.2c-5.69-2.93-12.67-4.39-20.94-4.39c-6.72,0-13.18,1.71-19.39,5.12
		c-11.38,7.32-17.06,21.23-17.06,41.74v0.73c0,21.97,5.43,36.37,16.28,43.2c5.68,3.42,12.41,5.12,20.16,5.12
		c8.27,0,15.25-1.7,20.94-5.12c6.2-4.88,12.92-5.61,20.16-2.2c7.23,3.42,11.37,9.03,12.41,16.84c0,7.81-3.36,13.43-10.08,16.84
		c-12.93,8.3-27.4,12.45-43.42,12.45c-16.03,0-29.99-3.9-41.87-11.71c-23.78-14.15-35.67-39.54-35.67-76.15
		c0-31.24,10.08-54.67,30.24-70.29C2143.18,109.65,2158.95,104.28,2177.56,104.28z"/>
	<path d="M2303.95,35.45c6.2,0,11.37,1.96,15.51,5.86c4.13,3.91,5.94,8.55,5.43,13.91v50.52h25.59c8.27,0,14.47,3.42,18.61,10.25
		c4.13,5.86,4.13,12.21,0,19.04c-4.14,6.84-10.34,10.01-18.61,9.52h-25.59v76.15c0,7.32,1.29,12.21,3.88,14.64
		c1.55,1.96,4.13,3.17,7.75,3.66c4.13,1.46,9.31,1.22,15.51-0.73c8.27-2.44,15.51-0.73,21.71,5.12c5.17,4.88,6.72,11.23,4.65,19.04
		c-2.07,7.32-6.98,11.96-14.73,13.91l-14.73,2.2c-22.75,1.46-39.81-4.39-51.18-17.57c-9.31-10.25-13.96-23.67-13.96-40.27v-76.15
		h-12.41c-8.28,0.49-14.22-2.68-17.83-9.52c-4.14-6.83-4.14-13.18,0-19.04c3.62-6.83,9.56-10.25,17.83-10.25h12.41V55.22
		c0-7.81,3.62-13.91,10.86-18.3C2297.75,35.94,2300.85,35.45,2303.95,35.45z"/>
	<path d="M2517.97,116.73c23.26,16.6,34.89,41.49,34.89,74.68c0,35.64-11.63,60.77-34.89,75.42c-12.93,7.81-27.4,11.71-43.42,11.71
		c-18.09,0-34.12-4.88-48.08-14.64c-19.65-15.62-29.21-39.78-28.69-72.49c0-34.65,11.63-59.31,34.89-73.95
		c12.41-8.29,26.37-12.45,41.87-12.45C2491.08,105.01,2505.56,108.92,2517.97,116.73z M2474.54,240.47c25.33,0,38-16.35,38-49.06
		c0-31.72-12.67-47.59-38-47.59c-6.72,0-13.18,1.96-19.39,5.86c-11.38,6.84-17.06,20.75-17.06,41.73v2.93
		C2438.1,225.09,2450.25,240.47,2474.54,240.47z"/>
	<path d="M2660.65,104.28c28.43,0,49.88,11.96,64.36,35.88c4.13,7.32,4.13,14.4,0,21.23c-4.65,6.35-11.12,9.28-19.39,8.79
		c-8.28-0.97-13.96-5.12-17.06-12.45c-3.62-6.83-8.28-10.98-13.96-12.45c-4.14-0.97-8.79-1.46-13.96-1.46
		c-13.44,0-22.49,3.42-27.14,10.25c-0.52,0.98-1.3,2.2-2.33,3.66c-2.59,5.37-4.14,10.98-4.65,16.84v84.2c0,7.32-3.1,12.94-9.3,16.84
		c-7.24,3.9-14.22,3.9-20.94,0c-6.72-3.9-10.08-9.52-10.08-16.84v-84.2c2.58-33.68,18.35-55.4,47.3-65.17
		C2641.78,105.99,2650.82,104.28,2660.65,104.28z"/>
</g>
</svg>
