<?xml version="1.0" encoding="utf-8"?>
<!-- Generator: Adobe Illustrator 26.1.0, SVG Export Plug-In . SVG Version: 6.00 Build 0)  -->
<svg version="1.1" id="Layer_1" xmlns="http://www.w3.org/2000/svg" xmlns:xlink="http://www.w3.org/1999/xlink" x="0px" y="0px"
	 viewBox="0 0 500 500" style="enable-background:new 0 0 500 500;" xml:space="preserve">
<style type="text/css">
	.st0{fill:#F24646;}
	.st1{fill:#00D0C2;}
	.st2{fill:#FDFFD0;}
	.st3{fill:#D4B783;}
	.st4{fill:#89634A;}
</style>
<g>
	<g>
		<path class="st0" d="M345.25,99.24c1.79,0.61,3.61,0.84,5.39,0.74c2.18-1.66,3.91-3.96,4.86-6.75c2.56-7.48-1.45-15.65-8.94-18.2
			c-1.79-0.61-3.61-0.84-5.39-0.74c-2.18,1.66-3.91,3.96-4.86,6.75C333.76,88.52,337.77,96.69,345.25,99.24z"/>
		<polygon class="st1" points="204.42,213.44 203.79,218.87 195.54,289.51 216.08,296.52 232.48,223.02 		"/>
		<polygon class="st1" points="302.63,246.98 300.9,252.03 278.44,317.82 299.24,324.92 331.08,256.69 		"/>
		<polygon class="st1" points="253.48,230.2 252.31,235.43 236.95,303.65 258.2,310.91 282.14,239.98 		"/>
		<polygon class="st1" points="351.85,263.78 349.58,268.65 320.01,332.01 341.77,339.44 380.36,273.52 		"/>
		<path class="st2" d="M405.05,230.36l-8.74-2.98c-2.6-0.89-4.49-3.14-4.92-5.85c-0.43-2.71,0.67-5.44,2.87-7.08
			c3.16-2.37,5.2-5.73,6.79-9.36c4.3-9.8,1.62-18.88-4.58-28l-15.95-5.45l-77.53-26.47c-3.87-1.32-5.94-5.53-4.62-9.4
			c0.23-0.67,0.55-1.28,0.93-1.84c1.84-2.64,5.27-3.87,8.47-2.78l68.57,23.41c0.36-0.74,0.69-1.5,0.96-2.29
			c3.51-10.27-2-21.47-12.26-24.98l-65.07-22.22c-2.99-1.02-6.06-1.27-9-0.87c-3.63,2.32-6.53,5.82-8.02,10.21
			c-1.28,3.75-1.41,7.75-0.36,11.56c0.73,2.65-0.07,5.48-2.06,7.36c-1.87,1.76-4.5,2.4-6.96,1.75c-0.17-0.04-0.34-0.08-0.51-0.14
			l-16.22-5.54c-5.89-2.01-12.08-1.06-16.95,2.06c-3.63,2.32-6.53,5.83-8.03,10.21c-0.88,2.57-1.2,5.26-0.98,7.93l148.24,50.62
			c3.87,1.32,5.94,5.53,4.62,9.4c-1.26,3.7-5.16,5.74-8.89,4.76c-0.17-0.05-0.34-0.09-0.52-0.15l-161.09-55.01
			c-5.89-2.01-12.08-1.06-16.95,2.06c-3.63,2.32-6.53,5.82-8.03,10.21c-3.51,10.27,1.99,21.47,12.26,24.98l199.76,68.21
			c2.99,1.02,6.06,1.27,9,0.87c3.63-2.32,6.53-5.82,8.02-10.21C420.82,245.07,415.32,233.86,405.05,230.36z"/>
	</g>
	<path d="M419.62,214.1c1.39-2.23,2.53-4.63,3.4-7.16c6.14-18-3.5-37.64-21.49-43.78l-5.62-1.92c1.38-2.22,2.51-4.6,3.37-7.11
		c6.14-18-3.5-37.63-21.49-43.78l-8.53-2.91c3.65-3.23,6.53-7.42,8.22-12.35c4.29-12.58-0.54-26.1-10.94-33.34
		c7.53-12.99,23.44-19.32,38.18-14.29c3.87,1.32,8.08-0.74,9.4-4.62s-0.75-8.08-4.62-9.4c-22.39-7.64-46.63,2.67-57.03,23.19
		c-13.06-1.16-25.75,6.66-30.17,19.61c-1.68,4.93-1.96,10.01-1.05,14.79l-8.53-2.91c-18-6.14-37.63,3.5-43.78,21.49
		c-0.86,2.51-1.42,5.09-1.68,7.69l-5.62-1.92c-18-6.14-37.64,3.5-43.78,21.49c-0.86,2.53-1.43,5.13-1.69,7.74
		c-17.47-4.89-35.98,4.7-41.91,22.07c-5.47,16.03,1.58,33.35,15.9,41.29l-10.01,85.74c-0.4,3.46,1.66,6.74,4.96,7.87l40.75,13.91
		c0,0,0.01,0,0.01,0.01c0,0,0.01,0,0.01,0l81.54,27.84c0,0,0.01,0,0.01,0.01c0,0,0.01,0,0.01,0l40.75,13.91
		c3.3,1.13,6.94-0.2,8.74-3.19l44.52-73.96c16.19,2.48,32.36-6.91,37.83-22.94C445.21,239.82,436.43,220.91,419.62,214.1z
		 M341.17,74.29c3.68-2.81,8.64-3.79,13.34-2.19c7.48,2.56,11.49,10.72,8.94,18.2c-1.94,5.7-7.14,9.37-12.81,9.68
		c-1.78,0.1-3.6-0.13-5.39-0.74c-7.48-2.56-11.49-10.72-8.94-18.2C337.26,78.25,338.99,75.95,341.17,74.29z M216.08,296.52
		l-20.54-7.01l8.25-70.64l0.63-5.42l28.06,9.58l6.91,2.36l-16.54,73.45L216.08,296.52z M264.42,313.03l-6.23-2.13l-21.25-7.26
		l15.36-68.22l1.18-5.24l28.65,9.78l6.47,2.21L264.42,313.03L264.42,313.03z M305.91,327.2l-5.68-1.94l-0.99-0.34l-20.81-7.1
		l22.46-65.79l1.72-5.05l28.45,9.72l6.67,2.28L305.91,327.2z M347.32,341.34l-5.13-1.75l-0.42-0.14l-21.76-7.43l29.57-63.36
		l2.27-4.87l28.51,9.74l6.45,2.2L347.32,341.34z M409.29,265.54c-2.94,0.4-6.01,0.15-9-0.87l-199.76-68.21
		c-10.27-3.51-15.77-14.71-12.26-24.98c1.5-4.38,4.4-7.89,8.03-10.21c4.87-3.11,11.07-4.07,16.95-2.06l161.09,55.01
		c0.17,0.06,0.34,0.1,0.52,0.15c3.72,0.98,7.62-1.06,8.89-4.76c1.32-3.87-0.75-8.08-4.62-9.4L230.88,149.6
		c-0.21-2.66,0.11-5.35,0.98-7.93c1.5-4.38,4.4-7.89,8.03-10.21c4.87-3.11,11.07-4.07,16.95-2.06l16.22,5.54
		c0.17,0.06,0.34,0.09,0.51,0.14c2.46,0.65,5.09,0.01,6.96-1.75c2-1.88,2.79-4.71,2.06-7.36c-1.05-3.81-0.93-7.81,0.36-11.56
		c1.5-4.38,4.4-7.89,8.02-10.21c4.87-3.11,11.07-4.07,16.95-2.06l65.07,22.22c10.27,3.51,15.77,14.71,12.26,24.98
		c-0.88,2.57-2.27,4.9-4.07,6.87l-4.84-1.65l-68.57-23.41c-3.2-1.09-6.63,0.13-8.47,2.78c-0.39,0.55-0.71,1.17-0.93,1.84
		c-1.32,3.87,0.74,8.08,4.62,9.4l77.53,26.47l15.95,5.45l0.27,0.09c10.27,3.51,15.77,14.71,12.26,24.98
		c-1.28,3.75-3.63,6.99-6.79,9.36c-2.19,1.65-3.3,4.37-2.87,7.08c0.43,2.71,2.32,4.96,4.92,5.85l8.74,2.98
		c10.27,3.51,15.77,14.71,12.26,24.98C422.78,259.69,416.43,264.56,409.29,265.54z"/>
</g>
<g>
	<g>
		<path class="st3" d="M293.48,256.59c-5.13,2.31-10.72,3.52-16.47,3.52c-6.83,0-13.58-1.76-19.52-5.1
			c-11.09-6.23-18.25-17.37-19.4-29.55c-12.58-1.12-23.99-8.14-30.37-18.87c-6.4-10.79-6.88-23.91-1.62-35.01
			c-8.05-5.5-13.66-13.74-15.72-23.1c-27.4,0.86-52.55,10.48-72.6,26.08c5.25,4.96,8.36,11.84,8.36,19.27
			c0,9.5-5.11,17.86-12.79,22.64c-4.28,2.66-9.36,4.21-14.81,4.21c-3.84,0-7.58-0.77-11.03-2.24c-0.02,0.02-0.03,0.03-0.05,0.05
			c-1.29,3.48-2.41,7.03-3.37,10.65c-2.56,9.64-3.93,19.73-3.93,30.14c0,66.44,55.56,120.5,123.85,120.5
			c27.01,0,52.02-8.47,72.4-22.8c0.43-0.38,0.98-0.77,1.62-1.18c7.63-5.55,14.6-11.93,20.73-19.01c-7.1-4.95-11.6-13.04-11.6-21.86
			c0-5.85,1.94-11.26,5.21-15.68c4.82-6.5,12.55-10.81,21.32-11.14c0.34-0.02,0.69-0.03,1.06-0.03c0.27,0,0.53,0.01,0.8,0.02
			c0.92-5.29,1.49-10.69,1.67-16.19C307.61,269.88,299.14,264.42,293.48,256.59z M154.05,340.05c-8.6,0-16.3-3.85-21.36-9.87
			c-4.08-4.68-6.55-10.74-6.55-17.34c0-14.8,12.38-26.85,27.6-26.85c8.6,0,16.3,3.85,21.36,9.87c4.08,4.68,6.55,10.74,6.55,17.34
			C181.64,328,169.26,340.05,154.05,340.05z M172.29,243.4c-8.6,0-16.3-3.85-21.36-9.87c-4.08-4.68-6.55-10.74-6.55-17.34
			c0-14.8,12.38-26.85,27.6-26.85c8.6,0,16.3,3.85,21.36,9.87c4.08,4.68,6.55,10.74,6.55,17.34
			C199.88,231.36,187.5,243.4,172.29,243.4z M229.3,327.24c-11.05,0-20.93-4.94-27.44-12.67c-5.21-6.01-8.36-13.76-8.36-22.22
			c0-19.03,15.92-34.52,35.48-34.52c11.05,0,20.93,4.94,27.44,12.67c5.21,6.01,8.36,13.76,8.36,22.22
			C264.78,311.75,248.86,327.24,229.3,327.24z"/>
		<path class="st4" d="M171.97,230.25c7.97,0,14.45-6.31,14.45-14.06c0-7.75-6.48-14.06-14.45-14.06c-7.97,0-14.45,6.31-14.45,14.06
			C157.51,223.94,164,230.25,171.97,230.25z"/>
		<path class="st4" d="M153.73,326.9c7.97,0,14.45-6.31,14.45-14.06s-6.48-14.06-14.45-14.06s-14.45,6.31-14.45,14.06
			C139.27,320.59,145.76,326.9,153.73,326.9z"/>
		<path class="st4" d="M113.01,193.81c0-4.16-1.86-7.99-4.97-10.61c-6.01,7.17-11.2,15.03-15.41,23.42
			c1.85,0.81,3.85,1.25,5.92,1.25C106.53,207.87,113.01,201.57,113.01,193.81z"/>
		<path class="st4" d="M300.31,314.91c0,4.75,2.49,9.09,6.39,11.66c5.34-7.68,9.79-16,13.21-24.8c-1.62-0.6-3.35-0.92-5.14-0.92
			C306.8,300.85,300.31,307.15,300.31,314.91z"/>
		<path class="st4" d="M228.98,314.09c12.32,0,22.34-9.75,22.34-21.73c0-11.98-10.02-21.73-22.34-21.73
			c-12.32,0-22.34,9.75-22.34,21.73C206.64,304.34,216.66,314.09,228.98,314.09z"/>
	</g>
	<g>
		<path class="st4" d="M193.33,199.21c3.89,4.63,6.23,10.54,6.23,16.98c0,14.8-12.38,26.85-27.6,26.85c-8.42,0-15.98-3.7-21.04-9.51
			c5.06,6.02,12.76,9.87,21.36,9.87c15.22,0,27.6-12.04,27.6-26.85C199.88,209.95,197.41,203.89,193.33,199.21z"/>
		<path class="st4" d="M181.32,312.83c0,14.8-12.38,26.85-27.6,26.85c-8.42,0-15.98-3.7-21.04-9.51c5.07,6.02,12.76,9.87,21.36,9.87
			c15.22,0,27.6-12.04,27.6-26.85c0-6.61-2.47-12.66-6.55-17.34C178.98,300.49,181.32,306.4,181.32,312.83z"/>
		<path class="st4" d="M264.46,292.35c0,19.03-15.92,34.52-35.48,34.52c-10.87,0-20.61-4.78-27.12-12.3
			c6.51,7.73,16.39,12.67,27.44,12.67c19.56,0,35.48-15.49,35.48-34.52c0-8.46-3.15-16.21-8.36-22.22
			C261.44,276.45,264.46,284.07,264.46,292.35z"/>
		<path d="M171.97,243.03c15.22,0,27.6-12.04,27.6-26.85c0-6.43-2.34-12.35-6.23-16.98c-5.06-6.02-12.76-9.87-21.36-9.87
			c-15.22,0-27.6,12.04-27.6,26.85c0,6.61,2.47,12.66,6.55,17.34C155.99,239.34,163.54,243.03,171.97,243.03z M171.97,202.12
			c7.97,0,14.45,6.31,14.45,14.06c0,7.75-6.48,14.06-14.45,14.06c-7.97,0-14.45-6.31-14.45-14.06
			C157.51,208.43,164,202.12,171.97,202.12z"/>
		<path d="M153.73,339.68c15.22,0,27.6-12.04,27.6-26.85c0-6.43-2.34-12.35-6.23-16.98c-5.06-6.02-12.76-9.87-21.36-9.87
			c-15.22,0-27.6,12.04-27.6,26.85c0,6.61,2.47,12.66,6.55,17.34C137.75,335.98,145.3,339.68,153.73,339.68z M153.73,298.77
			c7.97,0,14.45,6.31,14.45,14.06s-6.48,14.06-14.45,14.06s-14.45-6.31-14.45-14.06S145.76,298.77,153.73,298.77z"/>
		<path d="M341,258.05l-0.01-0.53c-0.04-3.37-2.77-6.14-6.24-6.31c-9.77-0.48-18.4-6.16-22.52-14.83c-0.82-1.72-2.38-3-4.26-3.49
			c-1.88-0.49-3.89-0.14-5.49,0.95c-4.41,3.02-9.81,4.69-15.21,4.69c-4.58,0-9.1-1.19-13.1-3.43c-8.84-4.97-13.96-14.58-13.03-24.48
			c0.18-1.89-0.52-3.76-1.9-5.1c-1.38-1.34-3.31-2.02-5.24-1.85c-0.79,0.07-1.58,0.1-2.37,0.1c-9.38,0-18.11-4.9-22.79-12.78
			c-5.11-8.6-4.6-19.41,1.3-27.54c1.12-1.55,1.48-3.51,0.98-5.34c-0.5-1.83-1.82-3.35-3.59-4.15c-8.9-4-14.74-12.39-15.24-21.9
			c-0.18-3.37-3.01-6.02-6.48-6.07l-0.54-0.01c-0.42-0.01-0.84-0.01-1.26-0.01c-75.54,0-136.99,59.79-136.99,133.28
			s61.45,133.28,136.99,133.28s136.99-59.79,136.99-133.28C341.01,258.86,341.01,258.45,341,258.05z M108.04,183.2
			c3.1,2.62,4.97,6.45,4.97,10.61c0,7.75-6.48,14.06-14.45,14.06c-2.07,0-4.07-0.44-5.92-1.25
			C96.84,198.23,102.03,190.37,108.04,183.2z M306.7,326.57c-3.9-2.57-6.39-6.91-6.39-11.66c0-7.75,6.48-14.06,14.45-14.06
			c1.79,0,3.52,0.32,5.14,0.92C316.49,310.57,312.04,318.88,306.7,326.57z M323.9,289.58c-2.67-0.91-5.49-1.42-8.34-1.5
			c-0.26-0.01-0.53-0.02-0.8-0.02c-0.36,0-0.71,0.02-1.06,0.03c-8.77,0.33-16.5,4.64-21.32,11.14c-3.28,4.41-5.21,9.83-5.21,15.68
			c0,8.82,4.5,16.91,11.6,21.86c-6.13,7.08-13.1,13.46-20.73,19.01c-0.54,0.39-1.07,0.79-1.62,1.18
			c-20.38,14.34-45.39,22.8-72.4,22.8c-68.29,0-123.85-54.05-123.85-120.5c0-10.4,1.37-20.5,3.93-30.14
			c0.96-3.62,2.09-7.17,3.37-10.65c0.01-0.02,0.01-0.04,0.02-0.06c0.01,0,0.02,0.01,0.03,0.01c3.44,1.46,7.19,2.24,11.03,2.24
			c5.45,0,10.53-1.55,14.81-4.21c7.68-4.77,12.79-13.13,12.79-22.64c0-7.43-3.11-14.31-8.36-19.27c-0.3-0.28-0.6-0.56-0.9-0.82
			c21.51-20.74,50.76-33.89,83.12-34.9c2.07,9.44,7.73,17.74,15.84,23.28c-5.3,11.18-4.82,24.41,1.63,35.28
			c6.42,10.82,17.92,17.89,30.6,19.02c1.16,12.27,8.36,23.49,19.54,29.77c5.99,3.36,12.79,5.14,19.67,5.14
			c5.8,0,11.43-1.21,16.6-3.54c5.7,7.89,14.23,13.39,23.93,15.41C327.51,272.27,326.17,281.1,323.9,289.58z"/>
		<path d="M228.98,326.87c19.56,0,35.48-15.49,35.48-34.52c0-8.29-3.02-15.9-8.04-21.85c-6.51-7.73-16.39-12.67-27.44-12.67
			c-19.56,0-35.48,15.49-35.48,34.52c0,8.46,3.15,16.21,8.36,22.22C208.37,322.09,218.11,326.87,228.98,326.87z M228.98,270.62
			c12.32,0,22.34,9.75,22.34,21.73c0,11.98-10.02,21.73-22.34,21.73c-12.32,0-22.34-9.75-22.34-21.73
			C206.64,280.37,216.66,270.62,228.98,270.62z"/>
	</g>
</g>
<g>
	<path d="M23.74,442.75c3.15,0,5.86,0.56,8.14,1.69c3.69,1.95,5.26,4.15,4.72,6.61c-0.22,1.54-1.25,2.56-3.09,3.07
		c-1.63,0.41-2.98,0.05-4.07-1.08c-1.52-2.15-3.96-3.02-7.32-2.61c-0.22,0-0.38,0.05-0.49,0.15c-1.84,0.21-3.09,1.08-3.74,2.61
		c-0.33,0.82-0.22,1.69,0.33,2.61c1.3,0.82,3.42,1.18,6.35,1.08c1.74,0,3.04,0.1,3.91,0.31c3.47,0.31,6.29,1.95,8.46,4.92
		c1.41,1.84,2.06,3.84,1.95,5.99c0.11,3.28-1.3,5.99-4.23,8.14c-1.19,0.82-2.44,1.43-3.74,1.84c-5.75,1.74-10.85,1.74-15.3,0
		c-3.58-1.64-5.7-3.58-6.35-5.84c-0.43-1.74,0.27-3.12,2.12-4.15c1.74-1.02,3.31-0.97,4.72,0.15c0.22,0.1,0.38,0.21,0.49,0.31
		c1.84,2.25,5.1,3.02,9.76,2.3c1.84-0.1,3.09-0.77,3.74-2c0.43-0.72,0.43-1.48,0-2.3c-0.98-1.02-2.71-1.54-5.21-1.54
		c-5.42,0.21-9.38-0.82-11.88-3.07c-2.71-2.15-3.96-4.97-3.74-8.45c0-2.25,0.7-4.25,2.12-5.99c2.49-3.28,6.51-4.87,12.04-4.76H23.74
		z"/>
	<path d="M45.22,457.96c0-3.58,1.14-6.71,3.42-9.37c2.71-3.28,6.67-4.92,11.88-4.92c7.81,0.72,12.64,4.05,14.48,9.99
		c0.33,1.33,0.54,2.77,0.65,4.3v17.52c0,1.64-0.81,2.82-2.44,3.53c-0.65,0.31-1.25,0.46-1.79,0.46c-1.84,0-3.09-0.82-3.74-2.46
		c-0.22-0.51-0.33-1.02-0.33-1.54v-17.52c-0.22-3.79-2.5-5.89-6.83-6.3c-3.69,0-5.91,1.64-6.67,4.92c-0.11,0.51-0.16,0.97-0.16,1.38
		v17.52c0,1.64-0.87,2.82-2.6,3.53c-0.43,0.31-0.98,0.46-1.63,0.46c-1.84,0-3.15-0.82-3.91-2.46c-0.22-0.51-0.33-1.02-0.33-1.54
		V457.96z"/>
	<path d="M111.12,479.32c-0.87,0.92-1.95,1.33-3.25,1.23c-1.95-0.1-3.25-0.97-3.91-2.61c-3.36,1.64-7.05,1.84-11.06,0.61
		c-0.98-0.41-1.9-0.87-2.77-1.38c-3.58-2.15-5.86-5.38-6.83-9.68c-1.52-6.76-0.6-12.5,2.77-17.21c3.04-3.89,7-5.84,11.88-5.84
		c2.06,0,4.12,0.51,6.18,1.54c0.98,0.51,1.9,1.13,2.77,1.84c3.25,2.77,5.04,6.56,5.37,11.37v15.67
		C112.26,476.91,111.88,478.4,111.12,479.32z M95.82,453.04c-2.17,0.61-3.47,1.95-3.91,3.99c-0.87,3.07-0.87,6.2,0,9.37
		c0,0.41,0.11,0.82,0.33,1.23c0.87,1.95,2.39,3.07,4.56,3.38c1.3,0.1,2.33,0.05,3.09-0.15c2.17-0.82,3.42-2.92,3.74-6.3
		c0.11-4.71-0.22-7.73-0.98-9.07c-1.19-1.84-2.88-2.77-5.04-2.77C97.07,452.74,96.48,452.84,95.82,453.04z"/>
	<path d="M135.53,442.9c3.36,0,6.4,0.82,9.11,2.46c1.41,0.92,2.12,2.15,2.12,3.69c-0.22,1.64-1.09,2.82-2.6,3.53
		c-1.52,0.61-2.93,0.46-4.23-0.46c-1.19-0.61-2.66-0.92-4.39-0.92c-1.41,0-2.77,0.36-4.07,1.08c-2.39,1.54-3.58,4.46-3.58,8.76v0.15
		c0,4.61,1.14,7.63,3.42,9.07c1.19,0.72,2.6,1.08,4.23,1.08c1.74,0,3.2-0.36,4.39-1.08c1.3-1.02,2.71-1.18,4.23-0.46
		c1.52,0.72,2.39,1.9,2.6,3.53c0,1.64-0.71,2.82-2.12,3.53c-2.71,1.74-5.75,2.61-9.11,2.61c-3.36,0-6.29-0.82-8.79-2.46
		c-4.99-2.97-7.49-8.3-7.49-15.98c0-6.56,2.12-11.47,6.35-14.75C128.31,444.03,131.62,442.9,135.53,442.9z"/>
	<path d="M157.33,428c1.19,0,2.22,0.41,3.09,1.23c0.87,0.82,1.3,1.79,1.3,2.92v22.59l13.83-12.45c1.41-1.23,3.04-1.48,4.88-0.77
		c0.43,0.21,0.87,0.51,1.3,0.92c1.3,1.33,1.57,2.82,0.81,4.46c-0.33,0.51-0.65,0.97-0.98,1.38l-10.09,8.91l12.2,15.67
		c1.19,1.54,1.25,3.07,0.16,4.61c-0.33,0.41-0.71,0.77-1.14,1.08c-1.52,1.13-3.15,1.18-4.88,0.15c-0.43-0.2-0.81-0.51-1.14-0.92
		l-11.55-14.9l-3.42,3.07v9.37c0,1.54-0.71,2.72-2.12,3.53c-1.52,0.82-2.98,0.82-4.39,0c-1.41-0.82-2.12-2-2.12-3.53v-43.17
		c0-1.74,0.81-2.97,2.44-3.69C156.08,428.15,156.68,428,157.33,428z"/>
	<path d="M232.67,442.9c3.36,0,6.4,0.82,9.11,2.46c1.41,0.92,2.12,2.15,2.12,3.69c-0.22,1.64-1.09,2.82-2.6,3.53
		c-1.52,0.61-2.93,0.46-4.23-0.46c-1.19-0.61-2.66-0.92-4.39-0.92c-1.41,0-2.77,0.36-4.07,1.08c-2.39,1.54-3.58,4.46-3.58,8.76v0.15
		c0,4.61,1.14,7.63,3.42,9.07c1.19,0.72,2.6,1.08,4.23,1.08c1.74,0,3.2-0.36,4.39-1.08c1.3-1.02,2.71-1.18,4.23-0.46
		c1.52,0.72,2.39,1.9,2.6,3.53c0,1.64-0.71,2.82-2.12,3.53c-2.71,1.74-5.75,2.61-9.11,2.61c-3.36,0-6.29-0.82-8.79-2.46
		c-4.99-2.97-7.49-8.3-7.49-15.98c0-6.56,2.12-11.47,6.35-14.75C225.46,444.03,228.77,442.9,232.67,442.9z"/>
	<path d="M275.95,445.52c4.88,3.48,7.32,8.71,7.32,15.67c0,7.48-2.44,12.75-7.32,15.83c-2.71,1.64-5.75,2.46-9.11,2.46
		c-3.8,0-7.16-1.02-10.09-3.07c-4.12-3.28-6.13-8.35-6.02-15.21c0-7.27,2.44-12.45,7.32-15.52c2.6-1.74,5.53-2.61,8.79-2.61
		C270.31,443.06,273.35,443.88,275.95,445.52z M266.84,471.48c5.32,0,7.97-3.43,7.97-10.29c0-6.66-2.66-9.99-7.97-9.99
		c-1.41,0-2.77,0.41-4.07,1.23c-2.39,1.43-3.58,4.35-3.58,8.76v0.61C259.19,468.26,261.74,471.48,266.84,471.48z"/>
	<path d="M299.06,475.48c0,0.51-0.11,1.03-0.33,1.54c-0.76,1.54-2.06,2.3-3.91,2.3c-0.65,0-1.25-0.1-1.79-0.31
		c-1.63-0.72-2.44-1.89-2.44-3.53v-42.1c0-0.72,0.11-1.33,0.33-1.84c0.87-1.54,2.17-2.3,3.91-2.3c0.65,0,1.19,0.1,1.63,0.31
		c1.74,0.72,2.6,2,2.6,3.84V475.48z"/>
	<path d="M315.5,475.48c0,0.51-0.11,1.03-0.33,1.54c-0.76,1.54-2.06,2.3-3.91,2.3c-0.65,0-1.25-0.1-1.79-0.31
		c-1.63-0.72-2.44-1.89-2.44-3.53v-42.1c0-0.72,0.11-1.33,0.33-1.84c0.87-1.54,2.17-2.3,3.91-2.3c0.65,0,1.19,0.1,1.63,0.31
		c1.74,0.72,2.6,2,2.6,3.84V475.48z"/>
	<path d="M346.9,470.1c1.3-1.02,2.77-1.28,4.39-0.77c1.41,0.61,2.22,1.74,2.44,3.38c0.33,1.54-0.22,2.77-1.63,3.69
		c-1.52,1.23-3.42,2.1-5.7,2.61c-1.63,0.31-4.34,0.41-8.14,0.31c-2.71,0-5.37-0.87-7.97-2.61c-4.77-3.28-7.32-8.25-7.65-14.9
		c-0.11-0.51-0.11-1.08,0-1.69c0.33-6.96,2.87-11.93,7.65-14.9c2.6-1.74,5.59-2.61,8.95-2.61c2.49,0,4.72,0.51,6.67,1.54
		c5.21,3.07,7.81,8.19,7.81,15.36v1.54c0,0.51-0.11,1.03-0.33,1.54c-0.65,1.64-1.95,2.46-3.91,2.46h-17.74
		c0.76,3.48,2.93,5.48,6.51,5.99h1.46C343.54,471.02,345.92,470.71,346.9,470.1z M338.76,450.89h-0.49c-0.98,0-2.06,0.31-3.25,0.92
		c-1.74,1.13-2.82,2.82-3.25,5.07h13.34v-0.31c-0.43-2.56-1.52-4.25-3.25-5.07c-0.76-0.41-1.68-0.61-2.77-0.61H338.76z"/>
	<path d="M377.16,442.9c3.36,0,6.4,0.82,9.11,2.46c1.41,0.92,2.12,2.15,2.12,3.69c-0.22,1.64-1.09,2.82-2.6,3.53
		c-1.52,0.61-2.93,0.46-4.23-0.46c-1.19-0.61-2.66-0.92-4.39-0.92c-1.41,0-2.77,0.36-4.07,1.08c-2.39,1.54-3.58,4.46-3.58,8.76v0.15
		c0,4.61,1.14,7.63,3.42,9.07c1.19,0.72,2.6,1.08,4.23,1.08c1.74,0,3.2-0.36,4.39-1.08c1.3-1.02,2.71-1.18,4.23-0.46
		c1.52,0.72,2.39,1.9,2.6,3.53c0,1.64-0.71,2.82-2.12,3.53c-2.71,1.74-5.75,2.61-9.11,2.61c-3.36,0-6.29-0.82-8.79-2.46
		c-4.99-2.97-7.49-8.3-7.49-15.98c0-6.56,2.12-11.47,6.35-14.75C369.95,444.03,373.26,442.9,377.16,442.9z"/>
	<path d="M403.69,428.46c1.3,0,2.39,0.41,3.25,1.23c0.87,0.82,1.25,1.79,1.14,2.92v10.6h5.37c1.74,0,3.04,0.72,3.91,2.15
		c0.87,1.23,0.87,2.56,0,3.99c-0.87,1.43-2.17,2.1-3.91,2h-5.37v15.98c0,1.54,0.27,2.56,0.81,3.07c0.33,0.41,0.87,0.67,1.63,0.77
		c0.87,0.31,1.95,0.26,3.25-0.15c1.74-0.51,3.25-0.15,4.56,1.08c1.08,1.03,1.41,2.36,0.98,3.99c-0.43,1.54-1.46,2.51-3.09,2.92
		l-3.09,0.46c-4.77,0.31-8.35-0.92-10.74-3.69c-1.95-2.15-2.93-4.97-2.93-8.45v-15.98h-2.6c-1.74,0.1-2.98-0.56-3.74-2
		c-0.87-1.43-0.87-2.77,0-3.99c0.76-1.43,2.01-2.15,3.74-2.15h2.6v-10.6c0-1.64,0.76-2.92,2.28-3.84
		C402.39,428.56,403.04,428.46,403.69,428.46z"/>
	<path d="M448.6,445.52c4.88,3.48,7.32,8.71,7.32,15.67c0,7.48-2.44,12.75-7.32,15.83c-2.71,1.64-5.75,2.46-9.11,2.46
		c-3.8,0-7.16-1.02-10.09-3.07c-4.12-3.28-6.13-8.35-6.02-15.21c0-7.27,2.44-12.45,7.32-15.52c2.6-1.74,5.53-2.61,8.79-2.61
		C442.96,443.06,445.99,443.88,448.6,445.52z M439.49,471.48c5.32,0,7.97-3.43,7.97-10.29c0-6.66-2.66-9.99-7.97-9.99
		c-1.41,0-2.77,0.41-4.07,1.23c-2.39,1.43-3.58,4.35-3.58,8.76v0.61C431.84,468.26,434.39,471.48,439.49,471.48z"/>
	<path d="M478.54,442.9c5.97,0,10.47,2.51,13.51,7.53c0.87,1.54,0.87,3.02,0,4.46c-0.98,1.33-2.33,1.95-4.07,1.84
		c-1.74-0.2-2.93-1.08-3.58-2.61c-0.76-1.43-1.74-2.3-2.93-2.61c-0.87-0.2-1.84-0.31-2.93-0.31c-2.82,0-4.72,0.72-5.7,2.15
		c-0.11,0.21-0.27,0.46-0.49,0.77c-0.54,1.13-0.87,2.3-0.98,3.53v17.67c0,1.54-0.65,2.72-1.95,3.53c-1.52,0.82-2.98,0.82-4.39,0
		c-1.41-0.82-2.12-2-2.12-3.53v-17.67c0.54-7.07,3.85-11.63,9.93-13.67C474.58,443.26,476.48,442.9,478.54,442.9z"/>
</g>
</svg>
