<?xml version="1.0" encoding="utf-8"?>
<!-- Generator: Adobe Illustrator 26.1.0, SVG Export Plug-In . SVG Version: 6.00 Build 0)  -->
<svg version="1.1" id="Layer_1" xmlns="http://www.w3.org/2000/svg" xmlns:xlink="http://www.w3.org/1999/xlink" x="0px" y="0px"
	 viewBox="0 0 500 500" style="enable-background:new 0 0 500 500;" xml:space="preserve">
<style type="text/css">
	.st0{fill:#F24646;}
	.st1{fill:#00D0C2;}
	.st2{fill:#FDFFD0;}
	.st3{fill:#D4B783;}
	.st4{fill:#89634A;}
</style>
<g>
	<g>
		<path class="st0" d="M371.74,94.87c2.41,0.82,4.88,1.13,7.28,1c2.95-2.25,5.28-5.35,6.57-9.11c3.45-10.1-1.96-21.13-12.07-24.58
			c-2.41-0.82-4.88-1.13-7.28-1c-2.95,2.25-5.28,5.35-6.57,9.12C356.22,80.39,361.63,91.42,371.74,94.87z"/>
		<polygon class="st1" points="181.57,249.08 180.72,256.4 169.58,351.79 197.31,361.27 219.46,262.01 		"/>
		<polygon class="st1" points="314.18,294.36 311.86,301.18 281.52,390.02 309.62,399.61 352.61,307.48 		"/>
		<polygon class="st1" points="247.82,271.7 246.23,278.77 225.49,370.89 254.19,380.69 286.52,284.91 		"/>
		<polygon class="st1" points="380.65,317.06 377.59,323.63 337.66,409.19 367.04,419.22 419.15,330.2 		"/>
		<path class="st2" d="M452.49,271.92l-11.8-4.03c-3.51-1.2-6.06-4.24-6.64-7.9c-0.58-3.66,0.91-7.34,3.87-9.56
			c4.27-3.2,7.02-7.74,9.17-12.64c5.81-13.24,2.19-25.5-6.19-37.8l-21.54-7.35l-104.69-35.75c-5.23-1.78-8.02-7.47-6.23-12.69
			c0.31-0.91,0.74-1.73,1.26-2.48c2.48-3.57,7.11-5.23,11.43-3.75l92.59,31.62c0.49-1,0.93-2.03,1.29-3.1
			c4.73-13.86-2.69-28.99-16.56-33.73l-87.86-30c-4.04-1.38-8.19-1.72-12.16-1.18c-4.9,3.13-8.82,7.86-10.84,13.78
			c-1.73,5.07-1.9,10.47-0.48,15.61c0.98,3.57-0.09,7.4-2.79,9.94c-2.52,2.38-6.08,3.24-9.4,2.37c-0.23-0.06-0.46-0.11-0.69-0.18
			l-21.9-7.48c-7.95-2.71-16.31-1.43-22.89,2.78c-4.9,3.13-8.82,7.87-10.84,13.78c-1.19,3.48-1.62,7.1-1.33,10.7l200.17,68.35
			c5.23,1.78,8.02,7.47,6.23,12.69c-1.71,4.99-6.97,7.75-12,6.43c-0.23-0.06-0.47-0.12-0.7-0.2l-217.53-74.28
			c-7.95-2.71-16.31-1.43-22.89,2.78c-4.9,3.13-8.82,7.87-10.84,13.78c-4.73,13.86,2.69,28.99,16.56,33.73l269.75,92.11
			c4.04,1.38,8.19,1.72,12.16,1.18c4.9-3.13,8.82-7.86,10.84-13.78C473.78,291.79,466.36,276.65,452.49,271.92z"/>
	</g>
	<path d="M472.16,249.97c1.88-3.01,3.42-6.25,4.59-9.67c8.3-24.3-4.72-50.82-29.02-59.12l-7.59-2.59c1.86-2.99,3.39-6.21,4.55-9.6
		c8.3-24.3-4.72-50.82-29.02-59.12l-11.52-3.93c4.92-4.37,8.82-10.01,11.09-16.67c5.8-16.98-0.73-35.24-14.77-45.02
		c10.16-17.54,31.65-26.09,51.55-19.29c5.23,1.78,10.91-1.01,12.69-6.23s-1.01-10.91-6.23-12.69c-30.23-10.32-62.97,3.6-77.01,31.32
		c-17.64-1.57-34.77,9-40.74,26.48c-2.27,6.66-2.64,13.51-1.42,19.98l-11.52-3.93c-24.3-8.3-50.82,4.72-59.12,29.02
		c-1.16,3.39-1.92,6.87-2.27,10.38l-7.59-2.59c-24.3-8.3-50.82,4.72-59.12,29.02c-1.17,3.42-1.93,6.92-2.28,10.45
		c-23.59-6.6-48.59,6.34-56.6,29.8c-7.39,21.64,2.14,45.03,21.47,55.75l-13.52,115.78c-0.55,4.68,2.24,9.1,6.7,10.62l55.03,18.79
		c0.01,0,0.01,0.01,0.02,0.01c0.01,0,0.01,0,0.02,0l110.11,37.6c0.01,0,0.01,0,0.02,0.01c0.01,0,0.01,0,0.02,0.01l55.03,18.79
		c4.46,1.52,9.37-0.27,11.8-4.31l60.11-99.87c21.86,3.34,43.7-9.34,51.09-30.98C506.72,284.7,494.86,259.17,472.16,249.97z
		 M366.24,61.17c4.97-3.79,11.67-5.12,18.02-2.95c10.1,3.45,15.52,14.48,12.07,24.58c-2.63,7.69-9.64,12.65-17.3,13.07
		c-2.4,0.13-4.87-0.17-7.28-1c-10.1-3.45-15.52-14.48-12.07-24.58C360.95,66.53,363.29,63.42,366.24,61.17z M197.31,361.27
		l-27.74-9.47l11.14-95.39l0.86-7.32l37.89,12.94l9.33,3.18l-22.33,99.19L197.31,361.27z M262.59,383.56l-8.41-2.87l-28.69-9.8
		l20.74-92.12l1.59-7.07l38.69,13.21l8.74,2.98L262.59,383.56L262.59,383.56z M318.62,402.69l-7.67-2.62l-1.33-0.45l-28.1-9.59
		l30.34-88.84l2.33-6.82l38.42,13.12l9.01,3.08L318.62,402.69z M374.53,421.78l-6.93-2.37l-0.57-0.19l-29.38-10.03l39.93-85.56
		l3.07-6.57l38.5,13.15l8.71,2.98L374.53,421.78z M458.21,319.43c-3.97,0.54-8.11,0.2-12.16-1.18l-269.75-92.11
		c-13.86-4.73-21.29-19.86-16.56-33.73c2.02-5.92,5.94-10.65,10.84-13.78c6.58-4.2,14.94-5.49,22.89-2.78l217.53,74.28
		c0.23,0.08,0.46,0.14,0.7,0.2c5.03,1.32,10.29-1.44,12-6.43c1.78-5.23-1.01-10.91-6.23-12.69L217.3,162.86
		c-0.29-3.6,0.14-7.23,1.33-10.7c2.02-5.92,5.94-10.65,10.84-13.78c6.58-4.2,14.94-5.49,22.89-2.78l21.9,7.48
		c0.23,0.08,0.46,0.12,0.69,0.18c3.32,0.87,6.88,0.01,9.4-2.37c2.7-2.54,3.77-6.36,2.79-9.94c-1.42-5.14-1.25-10.54,0.48-15.61
		c2.02-5.92,5.94-10.65,10.84-13.78c6.58-4.2,14.94-5.49,22.89-2.78l87.86,30c13.86,4.73,21.29,19.86,16.56,33.73
		c-1.19,3.48-3.06,6.61-5.49,9.28l-6.53-2.23l-92.59-31.62c-4.32-1.48-8.95,0.18-11.43,3.75c-0.52,0.75-0.95,1.57-1.26,2.48
		c-1.78,5.23,1.01,10.91,6.23,12.69l104.69,35.75l21.54,7.35l0.37,0.13c13.86,4.73,21.29,19.86,16.56,33.73
		c-1.73,5.07-4.9,9.44-9.17,12.64c-2.96,2.22-4.45,5.9-3.87,9.56c0.58,3.66,3.14,6.7,6.64,7.9l11.8,4.03
		c13.86,4.73,21.29,19.86,16.56,33.73C476.43,311.52,467.86,318.11,458.21,319.43z"/>
</g>
<g>
	<g>
		<path class="st3" d="M307.82,307.37c-6.93,3.12-14.47,4.75-22.24,4.75c-9.22,0-18.33-2.38-26.36-6.89
			c-14.98-8.42-24.64-23.46-26.19-39.9c-16.98-1.51-32.4-10.99-41-25.49c-8.65-14.57-9.28-32.29-2.18-47.28
			c-10.87-7.43-18.45-18.55-21.23-31.2c-37,1.15-70.96,14.16-98.04,35.21c7.1,6.69,11.3,15.99,11.3,26.02
			c0,12.83-6.9,24.12-17.27,30.57c-5.78,3.59-12.64,5.69-20,5.69c-5.18,0-10.24-1.05-14.89-3.02c-0.02,0.02-0.05,0.05-0.07,0.07
			c-1.74,4.7-3.26,9.49-4.56,14.38c-3.46,13.01-5.31,26.65-5.31,40.7c0,89.72,75.02,162.71,167.24,162.71
			c36.48,0,70.25-11.43,97.77-30.79c0.58-0.51,1.32-1.04,2.19-1.59c10.31-7.5,19.71-16.11,27.99-25.67
			c-9.59-6.68-15.67-17.61-15.67-29.52c0-7.9,2.62-15.21,7.04-21.17c6.51-8.77,16.95-14.6,28.79-15.04
			c0.46-0.03,0.94-0.04,1.43-0.04c0.36,0,0.72,0.01,1.07,0.02c1.25-7.14,2.02-14.44,2.26-21.87
			C326.89,325.32,315.46,317.95,307.82,307.37z M119.53,420.07c-11.62,0-22.01-5.2-28.85-13.33c-5.51-6.32-8.85-14.5-8.85-23.42
			c0-19.99,16.72-36.26,37.26-36.26c11.62,0,22.01,5.2,28.85,13.33c5.51,6.32,8.85,14.5,8.85,23.42
			C156.8,403.81,140.08,420.07,119.53,420.07z M144.16,289.56c-11.62,0-22.01-5.2-28.85-13.33c-5.51-6.32-8.85-14.5-8.85-23.42
			c0-19.99,16.72-36.26,37.26-36.26c11.62,0,22.01,5.2,28.85,13.33c5.51,6.32,8.85,14.5,8.85,23.42
			C181.42,273.3,164.71,289.56,144.16,289.56z M221.14,402.77c-14.92,0-28.26-6.67-37.06-17.1c-7.03-8.12-11.29-18.59-11.29-30.01
			c0-25.7,21.49-46.61,47.91-46.61c14.92,0,28.26,6.67,37.06,17.1c7.03,8.12,11.29,18.59,11.29,30.01
			C269.06,381.86,247.56,402.77,221.14,402.77z"/>
		<path class="st4" d="M143.73,271.8c10.76,0,19.52-8.52,19.52-18.99s-8.76-18.99-19.52-18.99c-10.76,0-19.52,8.52-19.52,18.99
			S132.97,271.8,143.73,271.8z"/>
		<path class="st4" d="M119.1,402.31c10.76,0,19.52-8.52,19.52-18.99c0-10.47-8.76-18.99-19.52-18.99s-19.52,8.52-19.52,18.99
			S108.34,402.31,119.1,402.31z"/>
		<path class="st4" d="M64.12,222.6c0-5.61-2.52-10.79-6.71-14.33c-8.12,9.68-15.12,20.29-20.8,31.63c2.49,1.09,5.2,1.69,7.99,1.69
			C55.36,241.59,64.12,233.07,64.12,222.6z"/>
		<path class="st4" d="M317.04,386.12c0,6.41,3.36,12.27,8.63,15.74c7.21-10.38,13.21-21.6,17.83-33.48
			c-2.19-0.81-4.53-1.25-6.94-1.25C325.79,367.13,317.04,375.65,317.04,386.12z"/>
		<path class="st4" d="M220.71,385.01c16.63,0,30.17-13.17,30.17-29.35c0-16.18-13.53-29.35-30.17-29.35s-30.17,13.17-30.17,29.35
			C190.55,371.85,204.08,385.01,220.71,385.01z"/>
	</g>
	<g>
		<path class="st4" d="M172.57,229.89c5.26,6.25,8.42,14.23,8.42,22.92c0,19.99-16.72,36.26-37.26,36.26
			c-11.38,0-21.57-4.99-28.41-12.84c6.84,8.13,17.23,13.33,28.85,13.33c20.55,0,37.26-16.26,37.26-36.26
			C181.42,244.39,178.09,236.21,172.57,229.89z"/>
		<path class="st4" d="M156.36,383.32c0,19.99-16.72,36.26-37.26,36.26c-11.38,0-21.57-4.99-28.41-12.84
			c6.84,8.13,17.23,13.33,28.85,13.33c20.55,0,37.26-16.26,37.26-36.26c0-8.92-3.34-17.1-8.85-23.42
			C153.2,366.64,156.36,374.63,156.36,383.32z"/>
		<path class="st4" d="M268.62,355.66c0,25.7-21.49,46.61-47.91,46.61c-14.68,0-27.83-6.46-36.62-16.61
			c8.79,10.43,22.14,17.1,37.06,17.1c26.42,0,47.91-20.91,47.91-46.61c0-11.42-4.25-21.89-11.29-30.01
			C264.55,334.2,268.62,344.47,268.62,355.66z"/>
		<path d="M143.73,289.07c20.55,0,37.26-16.26,37.26-36.26c0-8.69-3.16-16.67-8.42-22.92c-6.84-8.13-17.23-13.33-28.85-13.33
			c-20.55,0-37.26,16.26-37.26,36.26c0,8.92,3.34,17.1,8.85,23.42C122.16,284.07,132.35,289.07,143.73,289.07z M143.73,233.82
			c10.76,0,19.52,8.52,19.52,18.99s-8.76,18.99-19.52,18.99c-10.76,0-19.52-8.52-19.52-18.99S132.97,233.82,143.73,233.82z"/>
		<path d="M119.1,419.57c20.55,0,37.26-16.26,37.26-36.26c0-8.69-3.16-16.67-8.42-22.92c-6.84-8.13-17.23-13.33-28.85-13.33
			c-20.55,0-37.26,16.26-37.26,36.26c0,8.92,3.34,17.1,8.85,23.42C97.53,414.58,107.72,419.57,119.1,419.57z M119.1,364.33
			c10.76,0,19.52,8.52,19.52,18.99c0,10.47-8.76,18.99-19.52,18.99s-19.52-8.52-19.52-18.99
			C99.58,372.84,108.34,364.33,119.1,364.33z"/>
		<path d="M371.98,309.34l-0.01-0.72c-0.06-4.56-3.75-8.29-8.42-8.51c-13.2-0.65-24.85-8.32-30.41-20.02
			c-1.1-2.33-3.21-4.05-5.76-4.72c-2.54-0.66-5.26-0.19-7.41,1.28c-5.95,4.08-13.24,6.33-20.54,6.33c-6.18,0-12.29-1.6-17.69-4.63
			c-11.94-6.71-18.85-19.68-17.59-33.06c0.24-2.55-0.7-5.07-2.56-6.89c-1.86-1.81-4.47-2.72-7.08-2.49
			c-1.06,0.09-2.14,0.14-3.21,0.14c-12.66,0-24.45-6.61-30.77-17.26c-6.89-11.62-6.21-26.22,1.75-37.19c1.52-2.09,2-4.73,1.32-7.21
			c-0.68-2.47-2.46-4.53-4.85-5.6c-12.02-5.41-19.9-16.74-20.57-29.57c-0.24-4.55-4.07-8.14-8.75-8.19l-0.72-0.01
			c-0.57-0.01-1.13-0.02-1.7-0.02c-102,0-184.98,80.74-184.98,179.98s82.98,179.98,184.98,179.98S372,410.22,372,310.98
			C372,310.43,371.99,309.89,371.98,309.34z M57.41,208.27c4.19,3.54,6.71,8.71,6.71,14.33c0,10.47-8.76,18.99-19.52,18.99
			c-2.79,0-5.5-0.59-7.99-1.69C42.29,228.56,49.28,217.96,57.41,208.27z M325.67,401.86c-5.27-3.47-8.63-9.33-8.63-15.74
			c0-10.47,8.76-18.99,19.52-18.99c2.42,0,4.75,0.43,6.94,1.25C338.88,380.26,332.87,391.49,325.67,401.86z M348.89,351.92
			c-3.61-1.23-7.41-1.92-11.26-2.03c-0.36-0.01-0.72-0.02-1.07-0.02c-0.48,0-0.96,0.03-1.43,0.04
			c-11.84,0.44-22.28,6.27-28.79,15.04c-4.42,5.96-7.04,13.27-7.04,21.17c0,11.9,6.08,22.84,15.67,29.52
			c-8.28,9.57-17.69,18.17-27.99,25.67c-0.73,0.53-1.45,1.07-2.19,1.59c-27.51,19.36-61.29,30.79-97.77,30.79
			c-92.21,0-167.24-72.99-167.24-162.71c0-14.05,1.85-27.69,5.31-40.7c1.3-4.88,2.82-9.68,4.56-14.38c0.01-0.03,0.02-0.06,0.03-0.08
			c0.01,0.01,0.03,0.01,0.04,0.02c4.65,1.97,9.7,3.02,14.89,3.02c7.36,0,14.21-2.09,20-5.69c10.37-6.44,17.27-17.73,17.27-30.57
			c0-10.03-4.2-19.33-11.3-26.02c-0.4-0.38-0.8-0.75-1.22-1.11c29.04-28.01,68.55-45.76,112.24-47.12
			c2.8,12.74,10.44,23.95,21.39,31.44c-7.15,15.1-6.51,32.96,2.2,47.64c8.67,14.61,24.2,24.16,41.32,25.68
			c1.56,16.56,11.29,31.72,26.39,40.2c8.09,4.54,17.27,6.94,26.56,6.94c7.83,0,15.43-1.64,22.41-4.79
			c7.7,10.65,19.22,18.08,32.32,20.81C353.76,328.54,351.95,340.47,348.89,351.92z"/>
		<path d="M220.71,402.28c26.42,0,47.91-20.91,47.91-46.61c0-11.19-4.08-21.47-10.85-29.51c-8.79-10.43-22.14-17.1-37.06-17.1
			c-26.42,0-47.91,20.91-47.91,46.61c0,11.42,4.25,21.89,11.29,30.01C192.88,395.82,206.03,402.28,220.71,402.28z M220.71,326.31
			c16.63,0,30.17,13.17,30.17,29.35c0,16.18-13.53,29.35-30.17,29.35s-30.17-13.17-30.17-29.35
			C190.55,339.48,204.08,326.31,220.71,326.31z"/>
	</g>
</g>
</svg>
