<?xml version="1.0" encoding="utf-8"?>
<!-- Generator: Adobe Illustrator 17.1.0, SVG Export Plug-In . SVG Version: 6.00 Build 0)  -->
<!DOCTYPE svg PUBLIC "-//W3C//DTD SVG 1.1//EN" "http://www.w3.org/Graphics/SVG/1.1/DTD/svg11.dtd">
<svg version="1.1" id="Слой_1" xmlns="http://www.w3.org/2000/svg" xmlns:xlink="http://www.w3.org/1999/xlink" x="0px" y="0px"
	 viewBox="0 0 532 382.3" enable-background="new 0 0 532 382.3" xml:space="preserve">
<path fill="#F9AE41" d="M512.7,373.4L494.8,16.6c-0.1-2.6,1.9-4.8,4.5-5l0.1,0c2.6-0.2,4.8,1.8,5,4.4L532,372.2
	c0.2,2.7-1.8,5-4.5,5.1l-9.8,0.6C515.1,378.1,512.8,376,512.7,373.4z"/>
<path fill="#F9AE41" d="M475.2,374.5l5.3-357.2c0-2.6,2.2-4.7,4.8-4.7l0.1,0c2.6,0,4.7,2.1,4.7,4.7l4.5,357.3c0,2.7-2.1,4.8-4.8,4.8
	l-9.9-0.1C477.3,379.3,475.2,377.2,475.2,374.5z"/>
<polygon fill="#EE4036" points="34.3,111 37.1,35.6 0.3,35.6 1.6,111 "/>
<path fill="#D7D7D7" d="M290.3,174.7c0.4-1,0.3-2.2-0.3-3.1c-0.7-1.2-2.1-1.3-2.6-2.4c-0.7-1.3-0.4-2.5-1.7-3.6
	c-1.2-0.9-2.8-1.3-4.2-0.8c-0.7-1.8-3.1-3.8-5.1-3.9c-0.7,0-1.5,0.1-2.2-0.1c-0.6-0.2-1.1-0.8-1.6-1.3c-2.5-2.2-5.1,0-7.5-1.4
	c-2.1-1.2-4-1.2-6.3-0.4c-1.6,0.6-1,0.5-2.6-0.3c-0.9-0.5-2-0.7-3.1-0.7c-1.8,0.2-2.8,1.9-4.5,2.1c-1.6,0.2-2.9-1.2-4.6-0.7
	c-1.5,0.5-2.8,1.8-3.2,3.4c-2.3-1.6-8.2-0.9-7.7,3c-1.8-1-4.2-0.8-5.9,0.5c-1.6,1.3-2.4,3.6-1.9,5.6c-1.9,0.3-3.5,1.7-4,3.5
	c-0.6,2.1,0.5,4.1,2.4,5.1c-0.9,1-1.3,2.5-0.8,3.8c0.5,1.3,1.7,2.2,3,2.4c-0.1,1.3,0.4,2.7,1.4,3.6c1.1,1,2.8,0.5,3.7,1.1
	c0.9,0.7,0.8,2.5,2,3.3c1.2,0.8,2.8,0.9,4.1,0.3c0.6,1.2,1.7,2,2.9,2.4c1.2,0.5,2.6,1.5,3.9,0.7c0.7-0.5,1.4-1.2,2.3-1.2
	c1,0,1.8,0.8,2.6,1.4c1.9,1.4,4.8,1.3,6.7-0.1c-0.3,0.2,4.4,1.8,4.9,1.8c2.3,0,3.7-1.5,6-1.1c2,0.3,4.2,0,5.2-2
	c0.9,1.1,2.7,0.9,4,0.2c1.2-0.7,2.2-1.9,3.5-2.5c1.4-0.7,3-0.7,4.4-1.3c1.4-0.6,2.5-2.4,1.7-3.6c1.1,0.7,2.6,0,3.2-1.1
	c0.6-1.1,0.7-2.4,0.8-3.7c0.1-1.3,0.4-2.3,1.2-3.3c0.6-0.8,1.3-1,1.5-2.3c0-0.1,0-0.1,0-0.2C292,176.6,291.4,175.3,290.3,174.7z
	 M276.4,176.6c-0.2,1.9-1.5,3.6-4,5.1c-1.1,0.6-2.2,1.4-3.5,2.2c-3.9,2.6-8.3,5.6-12.7,5.6c-0.3,0-0.6,0-0.9,0
	c-5.7-0.5-11.6-3.4-15.7-7.5c-0.9-0.9-2-2.2-2.1-3.9c-0.4-6.8,9.5-10.6,14.9-12.7c0.4-0.2,0.8-0.3,1.2-0.5c1.6-0.6,3.2-0.9,5-0.9
	c4.7,0,8.8,2.2,11.4,4C273.5,170.5,276.7,173.3,276.4,176.6z"/>
<path fill="#EE4036" d="M255.2,177.2c-1.3-1.4-2.7-2.6-4.1-3.9c-1-0.9-2.2-2.6-3.5-3.2c-2-0.9-4.6,1.6-6,2.9c-1.4,1.3-2.6,3-2.5,5.1
	c0.1,1.1,0.8,2,1.6,2.8c1.9,1.9,4.1,3.4,6.4,4.6c1.7,0.8,5.6,3.3,7.3,1.3c1-1.2,1.4-3.9,1.6-5.4
	C256.3,179.9,256.3,178.3,255.2,177.2z"/>
<path fill="#F9AE41" d="M269,170c-0.1,0-0.2,0-0.3,0c-1.5,0.2-3,1.9-4.2,2.7c-1.7,1.2-3.4,2.3-5,3.6c-1.8,1.4-1.4,4.4-2.1,6.5
	c-0.4,1.1-1.1,2.2-1.2,3.4c-0.1,2,2.1,1.4,3.4,0.9c4.4-1.5,7.9-4.6,11.9-6.9c2.2-1.3,3.1-2.5,3.2-3.8C274.9,174.2,271.5,170,269,170
	z"/>
<path fill="#39B24A" d="M257,175.5c0.5,0,1.1-0.2,1.8-0.8c2.1-1.6,4.3-3,6.3-4.5c0.6-0.5,1.8-0.8,1.6-1.7c-0.1-0.6-0.9-1-1.4-1.2
	c-1.2-0.6-2.5-0.9-3.7-1.1c-2.5-0.5-5-0.5-7.4,0.5c-0.9,0.3-1.7,0.7-2.6,1c-0.8,0.3-2.1,0.9-1.7,2.1c0.2,0.7,1.6,1.5,2.2,2
	c0.8,0.7,1.6,1.5,2.4,2.2C255.5,174.8,256.1,175.5,257,175.5z"/>
<path fill="#D7D7D7" d="M160.9,22.4c0.4-1,0.3-2.2-0.3-3.1c-0.7-1.2-2.1-1.3-2.6-2.4c-0.7-1.3-0.4-2.5-1.7-3.6
	c-1.2-0.9-2.8-1.3-4.2-0.8c-0.7-1.8-3.1-3.8-5.1-3.9c-0.7,0-1.5,0.1-2.2-0.1c-0.6-0.2-1.1-0.8-1.6-1.3c-2.5-2.2-5.1,0-7.5-1.4
	c-2.1-1.2-4-1.2-6.3-0.4c-1.6,0.6-1,0.5-2.6-0.3c-0.9-0.5-2-0.7-3.1-0.7c-1.8,0.2-2.8,1.9-4.5,2.1c-1.6,0.2-2.9-1.2-4.6-0.7
	c-1.5,0.5-2.8,1.8-3.2,3.4c-2.3-1.6-8.2-0.9-7.7,3c-1.8-1-4.2-0.8-5.9,0.5c-1.6,1.3-2.4,3.6-1.9,5.6c-1.9,0.3-3.5,1.7-4,3.5
	C91.4,24,92.5,26,94.3,27c-0.9,1-1.3,2.5-0.8,3.8c0.5,1.3,1.7,2.2,3,2.4c-0.1,1.3,0.4,2.7,1.4,3.6c1.1,1,2.8,0.5,3.7,1.1
	c0.9,0.7,0.8,2.5,2,3.3c1.2,0.8,2.8,0.9,4.1,0.3c0.6,1.2,1.7,2,2.9,2.4c1.2,0.5,2.6,1.5,3.9,0.7c0.8-0.5,1.4-1.2,2.3-1.2
	c1,0,1.8,0.8,2.6,1.4c1.9,1.4,4.8,1.3,6.7-0.1c-0.3,0.2,4.4,1.8,4.9,1.8c2.3,0,3.7-1.5,6-1.1c2,0.3,4.2,0,5.2-2.1
	c0.9,1.1,2.7,0.9,4,0.2c1.2-0.7,2.2-1.9,3.5-2.5c1.4-0.7,3-0.7,4.4-1.3c1.4-0.6,2.5-2.4,1.7-3.6c1.1,0.7,2.6,0,3.2-1.1
	c0.6-1.1,0.7-2.4,0.8-3.7c0.1-1.3,0.4-2.3,1.2-3.3c0.6-0.8,1.3-1,1.5-2.3c0-0.1,0-0.1,0-0.2C162.7,24.4,162,23.1,160.9,22.4z
	 M146.3,24.4c-0.2,1.9-1.5,3.5-3.9,5c-1,0.6-2.1,1.4-3.3,2.1c-3.7,2.5-8,5.4-12.3,5.4c-0.3,0-0.6,0-0.9,0
	c-5.5-0.5-11.2-3.2-15.1-7.2c-0.9-0.9-1.9-2.1-2-3.7c-0.4-6.6,9.2-10.3,14.3-12.2c0.4-0.2,0.8-0.3,1.1-0.4c1.5-0.6,3.1-0.9,4.8-0.9
	c4.5,0,8.5,2.1,11,3.9C143.5,18.5,146.6,21.1,146.3,24.4z"/>
<path fill="#39B24A" d="M139.2,17.5c-4.1-2.9-9.8-4.9-14.5-1.8c-1.8,1.1-3.1,3.1-3.1,5.2c-0.2,3.9,5.5,8.5,8.9,5.1
	c1-1,0.9-2.9-0.3-3.6c-0.8-0.5-3.9-1.1-2.7-2.7c0.9-1.3,4.2-0.4,5.1,0.3c1.3,1,2.1,2.7,1.8,4.4c-0.5,3.5-4.9,4.6-7.9,4.4
	c-2.5-0.2-5-1.9-6.4-4c-0.8-1.2-0.9-2.2-1-3.5c-0.1-1.2-0.1-2.4-1.5-2.8c-1.2-0.4-2.4,0.7-3.4,1.4c-1.9,1.4-3.9,3.4-3.7,5.9
	c0.1,1,0.8,1.9,1.5,2.7c3.7,3.7,8.9,6.2,14.1,6.7c5.3,0.5,11-4.6,15.5-7.2c2.1-1.2,3-2.4,3.1-3.7C144.8,21.9,142.1,19.6,139.2,17.5z
	"/>
<g>
	<path fill="#D7D7D7" d="M407,233.9c1-9.2-0.2-18.8-3.1-27.5c-3.1,2.6-6.1,5.3-9,8c-7.8,7.2-19.5,18.1-33.3,18.1c0,0,0,0,0,0
		c-0.8,0-1.7,0-2.5-0.1c-5.9-0.6-11.3-4-14.2-9.1c-0.6,4.2,1,8.8,5.2,10.6c0.3,0.1,1,3.1,1.3,3.6c0.7,1.3,1.6,2.8,2.9,3.5
		c2.2,1.2,4.8,1.5,7,0.1c-1.2,6.9,10.4,5.7,10.1,4c0.5,2.6,2.8,4.7,5.5,5c2.6,0.3,5.4-1.2,6.5-3.5c3.2,3.4,7.6,1.7,10.5-1.2
		c0.9-1,2.3-4.9,3.2-5.3c1.4-0.7,5.1,1.2,7.2,0.4c1.3-0.5,2.5-1.3,3.5-2.3C407,237.1,406.8,235.7,407,233.9z"/>
	<path fill="#D7D7D7" d="M450,186c2.4-2,3.2-7.2,1.4-10c-0.3-0.4-0.6-0.8-1-1.1c2.6-3.1,1.8-7.5-0.4-10.5c-0.1-0.2-0.4-0.5-0.9-0.8
		c-1,6.1-6.1,10.9-10.9,14.8c-2.1,1.7-4.2,3.4-6.3,5.1c1.3,3.1,2.3,6.3,3.1,9.7c0.5,2.1,0.9,4.3,1.2,6.5c0.6,4.8,0.8,9.5,0.4,14.2
		c0.9-0.4,1.8-0.9,1.9-1c1.4-1.3,2.3-3.3,1.7-5.2c1.9,0.3,3.9-0.5,5.2-2c1.7-2,0.5-3.8,1.1-5.8c0.3-1,1.4-1.4,1.9-2.4
		c0.5-1.1,0-2.3,0.6-3.3c1-1.5,3.1-1,3.8-3.2C453.6,188.7,452.5,185.8,450,186z"/>
</g>
<g>
	<path fill="#D7D7D7" d="M141.3,227.9c0.9-8.8-0.2-18-3.2-26.4l-7.8,6.8c-1.6,1.4-3.3,3.1-5.1,4.8c-4.1,4-8.2,8.1-12.9,10.5
		c-2.5,1.3-5.2,1.9-8,1.9c0,0,0,0,0,0c-3.3,0-6.8-0.8-10.9-2.5c-5.6-2.3-10.9-4.7-15.7-7.2c-0.5-0.3-1.1-0.5-1.6-0.8
		c-0.4-0.2-0.8-0.4-1.1-0.5c-0.3,0.6-0.7,1.2-0.9,1.8c-1.5,4.7-0.1,10.4,4.7,12.5c0.3,0.1,1.1,3.1,1.3,3.6c0.7,1.3,1.6,2.8,2.9,3.5
		c2.2,1.2,4.8,1.5,7,0.1c-1.2,6.9,10.4,5.7,10.1,4c0.5,2.6,2.8,4.7,5.5,5c2.6,0.3,5.4-1.2,6.5-3.5c3.2,3.4,7.6,1.7,10.5-1.2
		c0.9-1,2.3-4.9,3.2-5.3c1.4-0.7,5.1,1.2,7.2,0.4c2.4-0.8,4.3-2.7,5.2-5c1.1,0.2,2.2,0.1,3.2-0.3
		C141.3,229.6,141.2,228.8,141.3,227.9z"/>
	<path fill="#D7D7D7" d="M178.8,181.1c2.4-2,3.2-7.2,1.4-10c-0.3-0.4-0.6-0.8-1-1.1c2.1-2.5,1.9-6,0.6-8.8c-1.5,5.5-6,9.4-10.2,13
		l-1.1,1l-2.8,2.4c1.6,3.4,2.9,7.1,3.8,10.9c0.5,2.1,0.9,4.2,1.2,6.3c0.4,2.7,0.6,5.3,0.7,7.8c1.1-0.3,2.1-0.9,2.8-1.8
		c1.7-2,0.5-3.8,1.1-5.8c0.3-1,1.4-1.4,1.9-2.4c0.5-1.1,0-2.3,0.6-3.3c1-1.5,3.1-1,3.8-3.2C182.4,183.8,181.4,180.9,178.8,181.1z"/>
</g>
<path fill="#D7D7D7" d="M293.8,29.9c0.4-0.5,0.5-1.3,0.2-1.9c-0.3-0.7-3.7-2.4-3.7-2.1c0-1.8-2.2-3.3-3.9-2.5
	c0.1-2.6-3.4-4.6-5.6-3.2c0.2-2-2.4-3.6-4.1-2.5c-0.9-2.1-3.6-3.1-5.7-2.1c-0.2-2.2-3.1-3.6-5-2.5c0.3-1.1-0.5-2.3-1.6-2.5
	c-1.1-0.2-2.2,0.7-2.3,1.8c0-1.8-2.5-3-4.1-2.8c-0.7,0.1-1.3,0.3-1.8,0.7c-0.6,0.4-1,0.9-1.3,1.5c-1-1-2.5-1.4-3.8-1
	c-0.4,0.1-3.7,2-3.3,2.3c-1.1-0.7-2.5-0.9-3.7-0.4c-1.2,0.6-2,1.8-2.1,3.1c-1.8-1.3-4.8,0-5,2.2c-2.4-0.9-5.4,0.8-5.7,3.4
	c-1.5-0.8-3.3-0.7-4.7,0.2c-1.4,0.9-2.3,2.5-2.2,4.2c-1-0.3-2.1-0.1-2.6,0.8c-0.4,0.6-0.3,1.5,0.2,2.1c-0.8-0.1-1.7,0.1-2.3,0.7
	c-1.6,1.4-0.7,3.1,0.8,4.2c0.3,0.2,1.9,1.1,2.2,0.6c-0.5,1-0.5,2.3,0.4,3.1c0.8,0.8,2.3,0.9,3.2,0.2c-0.5,1.4,0.2,3.1,1.6,3.8
	c1.3,0.7,3.1,0.2,3.9-1c-0.1,1.3,0.5,2.6,1.6,3.3c0.5,0.3,1.1,0.5,1.7,0.6c0.6,0,1.4-0.3,1.8-0.1c0.4,0.2,0.7,1.1,1.2,1.4
	c0.5,0.4,1.1,0.7,1.8,0.9c1.4,0.3,2.9-0.1,3.9-1.1c0.2,1.1,0.9,2.1,1.9,2.7c0.9,0.6,2.4,1,3.4,0.5c0.2,1.1,0.7,2.1,1.8,2.6
	c1,0.4,2.2,0.3,3.1-0.4c0.2,1.1,1.1,2,2.3,2.1c0.5,0,1.1-0.1,1.5-0.4c0.4-0.3,0.8-1.1,1.2-1.2c0.4-0.1,1.4,0.4,1.9,0.5
	c0.7,0.1,1.4,0,2.1-0.2c1.4-0.5,2.6-1.6,3.1-3c1.1,0.7,2.7,0.9,3.9,0.3c1.4-0.6,2-1.9,2.7-3.2c1.1,0.8,2.6,0.9,3.9,0.5
	c1.3-0.5,2.3-1.5,2.8-2.9c0.9,0.5,2.1,0.3,2.8-0.3c0.7-0.6,0.4-1.8,1.1-2.4c0.4-0.3,0.8-0.1,1.3-0.1c0.6-0.1,1.2-0.3,1.7-0.7
	c0.8-0.7,1.2-1.7,1-2.7c1,0.4,2.2,0.4,3.1-0.1c0.4-0.2,0.8-0.6,1.1-1c0.3-0.4,0.4-1.3,0.7-1.6c0.2-0.2,0.9-0.3,1.2-0.5
	c0.5-0.3,0.8-0.8,1-1.3C294.6,31.6,294.4,30.6,293.8,29.9z M281.1,29.6c-0.1,2-2,3.3-3.4,4.2l-0.4,0.3c-2.2,1.6-4.5,2.9-6.7,4
	l-0.5,0.2c-2.2,1.1-4.2,2.1-6.7,3l-0.4,0.1c-1.2,0.4-2.8,1.1-4.2,1.1l-0.1,0c-1.3,0-2.4-0.4-3.5-0.7c-0.2-0.1-0.5-0.2-0.7-0.2
	c-2.1-0.6-4.8-1.5-7.3-2.9c-2-1.1-4.7-2.6-7.2-4.4l-0.5-0.3c-1.5-1-3.4-2.4-3.5-4.4c0-0.7,0.2-1.8,1.5-2.8c0.2-0.1,4.4-3.6,9.3-6
	c2-1,4.4-2.1,7-2.9l0.4-0.1c1.1-0.4,2.4-0.8,3.7-0.9c0.2,0,0.4,0,0.7,0c0.4,0,0.7,0,1,0.1c4,0.7,8,2.7,10.7,4.1l1.1,0.6
	c1.7,0.9,3.5,1.8,5.1,2.9c1,0.7,2,1.4,2.9,2.2C280.9,27.7,281.1,28.8,281.1,29.6z"/>
<path fill="#EE4036" d="M252.3,32.2c-2.6-2.9-5.5-5.3-8.4-7.9c-3,1.9-5.2,3.7-5.2,3.7c-2.4,1.9,0.9,3.8,2.5,4.9c2.2,1.6,4.6,3,7,4.2
	c2.2,1.2,4.6,2,7,2.7c1.2,0.4,2.5,0.9,3.8,0.9c0.1,0,0.2,0,0.3,0C257,37.9,254.8,35,252.3,32.2z"/>
<path fill="#EE4036" d="M264.9,30.5c-1.4-4-2.6-8.2-4.7-11.9c-0.2-0.1-0.5-0.1-0.7-0.2c-0.4-0.1-0.8-0.1-1.3,0
	c-1.3,0.1-2.7,0.6-3.8,1c-2.3,0.8-4.6,1.8-6.8,2.9c-0.7,0.4-1.4,0.7-2.1,1.1c3.1,2.8,6.2,5.3,8.9,8.6c2.3,2.7,4.5,5.6,6.6,8.4
	c0.7-0.2,1.3-0.5,1.8-0.6c1.6-0.6,2.9-1.2,4.2-1.8C266.6,35.4,265.8,32.9,264.9,30.5z"/>
<path fill="#EE4036" d="M278.5,27.8c-0.9-0.7-1.8-1.4-2.7-2.1c-2-1.3-4.1-2.3-6.1-3.4c-2.2-1.1-4.6-2.3-7.1-3.1
	c1.9,3.8,3.2,8.1,4.5,12.1c0.6,1.9,1.2,3.8,1.6,5.8c0.4-0.2,0.7-0.4,1.1-0.5c2.3-1.1,4.4-2.4,6.5-3.9
	C277.9,31.5,280.8,29.9,278.5,27.8z"/>
<path fill="#EE4036" d="M172,25.8C172,11.5,152.1,0,127.6,0S83.2,11.5,83.2,25.8c0,0.4,0,0.7,0,1.1h0v52.8
	c0,14.2,19.9,25.8,44.4,25.8S172,93.9,172,79.7V26.8h0C172,26.5,172,26.1,172,25.8z M164.5,49.1c-5.8,6.3-13.9,9.3-22.4,8.1
	c-0.7-0.1-0.5-1.2,0.2-1.2c7.6-0.6,14.6-3.7,19.8-9.3C163.6,45.1,166,47.5,164.5,49.1z M90.4,21.5c0.5-1.9,2-3.5,3.8-4.3
	c0-2.2,0.9-4.4,2.7-5.7c1.2-1,2.8-1.5,4.4-1.5c0.4,0,0.8,0,1.2,0.1c0.2-0.4,0.4-0.8,0.7-1.2c1.1-1.3,3-2,5.3-2
	c0.8,0,1.5,0.1,2.2,0.3c0.8-1.3,2.1-2.3,3.6-2.8c0.4-0.1,0.8-0.2,1.3-0.2c0.9,0,1.7,0.3,2.4,0.5c0.5,0.2,0.8,0.3,1.1,0.3
	c0.5-0.1,0.9-0.4,1.4-0.7c0.8-0.6,1.8-1.2,3.2-1.4c0.2,0,0.4,0,0.6,0c1.2,0,2.4,0.3,3.4,0.9c0.3,0.2,0.5,0.3,0.7,0.4
	c0,0,0.5-0.2,0.5-0.2c1.3-0.5,2.4-0.7,3.5-0.7c1.4,0,2.8,0.4,4.2,1.2c0.3,0.2,0.7,0.3,1.2,0.3c0.4,0,0.7,0,1.1-0.1
	c0.5,0,1-0.1,1.5-0.1c1,0,2.5,0.2,4,1.5c0.2,0.1,0.3,0.3,0.4,0.4c0.2,0.2,0.5,0.5,0.6,0.5c0,0,0.2,0,0.4,0c0.1,0,0.3,0,0.4,0
	c0.2,0,0.4,0,0.6,0l0.2,0c2.3,0.1,4.7,1.8,5.9,3.7c0.1,0,0.3,0,0.4,0c1.5,0,2.9,0.5,4,1.4c1.3,1,1.6,2.2,1.8,3.1
	c0.1,0.4,0.2,0.7,0.3,1c0.1,0.1,0.4,0.3,0.7,0.5c0.6,0.4,1.4,0.8,1.9,1.8c0.6,1,0.9,2.2,0.7,3.4c1,1,1.6,2.5,1.5,3.9
	c0,0.1,0,0.2,0,0.3c-0.2,1.5-0.9,2.2-1.4,2.7c-0.1,0.1-0.3,0.3-0.4,0.4c-0.5,0.7-0.8,1.3-0.9,2.4l0,0.4c-0.1,1.2-0.2,2.6-1,3.9
	c-0.6,1.1-1.7,1.8-2.8,2.1c0,0.1,0,0.1-0.1,0.2c-0.4,1.3-1.5,2.6-2.8,3.2c-0.8,0.4-1.7,0.6-2.5,0.7c-0.7,0.1-1.3,0.3-1.9,0.5
	c-0.6,0.3-1.1,0.7-1.7,1.2c-0.5,0.4-1.1,0.9-1.7,1.3c-0.9,0.6-2,0.9-3,0.9c-0.5,0-1-0.1-1.5-0.2c-1.1,1-2.6,1.6-4.4,1.6
	c-0.5,0-1,0-1.5-0.1c-0.2,0-0.3,0-0.4,0c-0.6,0-1.2,0.2-1.9,0.5c-0.9,0.3-3.4,0.7-3.4,0.7c0,0-2.9-0.6-4.9-1.5
	c-1,0.5-2.2,0.8-3.5,0.8c-1.5,0-3-0.5-4.2-1.3c-0.2-0.1-0.4-0.3-0.6-0.5c-0.3-0.2-0.8-0.6-1-0.6c-0.1,0-0.6,0.3-0.8,0.5
	c-0.2,0.2-0.5,0.3-0.7,0.5c-0.6,0.4-1.2,0.5-1.9,0.5c-1.1,0-2-0.4-2.8-0.8c-0.2-0.1-0.5-0.2-0.7-0.3c-1.2-0.5-2.3-1.2-3-2.1
	c-0.3,0.1-0.6,0.1-1,0.1c-1.2,0-2.3-0.3-3.3-1c-1.2-0.8-1.6-1.9-1.9-2.8c-0.1-0.2-0.2-0.5-0.3-0.7c-0.2,0-0.5-0.1-0.7-0.1
	c-0.9-0.1-2.1-0.2-3.1-1.1c-1-0.9-1.7-2.2-1.9-3.5c-1.4-0.6-2.5-1.7-3-3.1c-0.5-1.3-0.4-2.7,0.1-3.9C90.4,25.9,89.8,23.6,90.4,21.5z
	 M117.1,97.4c-13,0.7-17-13.8-26.4-19.3c-1.4-0.8-0.5-3.2,1.1-2.6c4.1,1.5,6.4,4.9,8.8,8.4c3.6,5.6,9.5,11.5,16.5,12.4
	C117.8,96.3,117.8,97.3,117.1,97.4z M160.4,90.4c-13.1,6-30.2,3.3-41.4-5.5c-12.4-9.8-17.6-26.2-31.2-34.9c-0.7-0.5-0.1-1.4,0.6-1.1
	c12.4,5.5,17.9,18.1,26.8,27.5c11.8,12.6,27.6,15.3,43.8,10.7C160.9,86.7,162.2,89.6,160.4,90.4z M165.4,71.3
	c-15.3,6.8-35.7,3.8-46.5-10c-0.5-0.7,0.3-1.5,1-1c6.4,5.2,12.6,9.7,21,10.8c8.1,1.1,15.6-0.1,23.1-3.1
	C165.9,67.3,167.2,70.5,165.4,71.3z"/>
<g>
	<path fill="#EE4036" d="M364.6,175.2c-4,0-7.9,0.6-11.6,1.9l-0.5,0.2c-8,13.3-13.5,31.8-6.7,44.5c2.6,4.9,7.8,8.3,13.3,8.8
		c13.7,1.3,25.4-9,34.6-17.5c3.1-2.9,6.3-5.7,9.5-8.4c-2.1-5.7-5-11-8.6-15.5C387.7,180.5,376.2,175.2,364.6,175.2z M352.8,185.5
		c4-0.1,7.7,1.6,11.7,0.8c2.8-0.5,5.3-1.7,8-2.6c3.6-1.3,7.4-2.2,10.5,0.6c1.3,1.2-0.4,3-1.8,2.3c-5.3-2.8-11.1,2-16.5,2.4
		c-4.1,0.3-9.1,0.1-12.1-3.1C352.5,185.7,352.6,185.5,352.8,185.5z M372,223.5c-3.4-5.1-11-3.6-16-6c-3.8-1.8-8.3-4.4-9.4-8.7
		c0-0.2,0.1-0.3,0.3-0.2c3.6,1.9,6.1,5.2,10.1,6.5c2.8,0.9,5.6,1.1,8.5,1.6c3.9,0.6,7.8,1.6,9.2,5.7
		C375.4,224,372.9,224.8,372,223.5z M390,204.6c-8.5-7.5-17.9-2.2-28-2.9c-4.4-0.3-10.9,0-12.8-4.9c-0.1-0.4,0.4-0.8,0.7-0.4
		c6.4,6.6,20,1.3,27.8,0.8c5.2-0.3,11.7,0.3,14.5,5.4C393.1,204,391.4,205.8,390,204.6z"/>
	<path fill="#EE4036" d="M439.5,149.5c-8.9-4.6-22.8-5-30.2-5.2c-8.4-0.1-18,2.5-26.8,6.7c0.6,0,1.3,0,1.9,0
		c14.5,0,29.1,6.5,38.3,17.1c3.5,4,6.4,8.7,8.6,13.8c2-1.6,3.9-3.2,5.9-4.8c4.9-4.1,10.3-9,10.5-15.4
		C447.8,155.9,444.4,152,439.5,149.5z M433.7,170c-0.4,0.8-1.4,0.8-2,0.3c-1.1-1-1.1-2.5-1.7-3.8c-0.6-1.3-1.2-2.5-2.1-3.6
		c-1.7-2.1-4-3.5-6.4-4.6c-0.6-0.3-0.3-1.4,0.4-1.4c3.2,0.3,6.2,2.1,8.4,4.5C432.2,163.4,435,167.1,433.7,170z M437.2,158.4
		c-3.3-2.8-5.8-5.4-10.4-5.8c-4.3-0.4-8.4,0.1-12.7,0c-4.4,0-9.6-0.1-12.8-3.5c-0.2-0.2,0-0.5,0.2-0.4c5.1,0.9,9.4,2,14.6,1.6
		c3.7-0.3,7.5-0.9,11.2-0.3c4.6,0.7,10,2.5,11.7,7.2C439.5,158.3,438,159.1,437.2,158.4z"/>
</g>
<path fill="#F05A29" d="M229,312.1c0.9-1.6,1.5-3.3,1.7-4.8c0.3-2.8-1.4-1.4-4-1.1c-2.4,0.3-4.1-0.5-5.7,1.9
	c-0.8,1.1-1.3,2.4-2.4,3.2c-0.3,0.2-0.9,0.3-1,0c0-0.1,0.7-1.8,0.8-2.1c0.5-1.1,1.3-2.1,1.8-3.2c-0.1,0-0.1,0-0.2,0
	c1.7-3.3,2.7-6.7,2.5-9.4c-0.3-2.8-1.6-1.1-4.1-0.3c-2.5,0.8-5.8,0.4-7.5,2.3c-1.9,2.2-3.6,4.2-5.9,6c0.9-4.2,5-7.4,6.3-11.7
	c0.6-2.1,0.4-4.1,0.4-6.2c0-2.4,0-4.8-1.1-7.1c-1.2-2.5-1.9-0.5-4,1.1c-2.4,1.2-4.4,2.7-6.9,3.8c-3.7,1.6-6.9,2.2-8.1,6.7
	c-0.9,3.3,0.6,6.7,2,9.6c0.7,1.5,1.6,3.1,2.2,4.7c0.1,0.4,0.8,4.1,0.2,4.2c-0.7,0.1-3.3-7.5-4.2-8.5c-0.6-0.7-1.3-1.4-2.2-1.4
	c-0.8,0-1.5,0.5-2.2,1c-1.3,1.1-2.7,2.5-4.3,3.2c-1.6,0.6-3.2,0.8-4.7,1.6c-2.1,1.2-4,2.8-5.3,4.9c-0.8,1.2-2.4,4.6-2,6
	c-1.4-5,2.3-10.7,6.8-12.9c2.8-1.3,6.2-2,8.5-4.2c2.7-2.6,3.9-5.8,2.5-9.5c-0.5-1.2-1.2-2.3-1.8-3.4c-1.9-2-4.1-3.6-6.2-5.3
	c-3.4-2.7-7.2-5-10.1-8.6c-1.6-2-1.8-4.2-3.6-2c-2.5,3-3.1,7.4-3.3,11.2c-0.2,2.8,0,5.6,0.3,8.3c0.3,2.5,0.5,4.8,1.8,7
	c0.5,0.9,1.1,1.7,1.8,2.4c0.3,0.3,1.4,1.1,1.2,1.7c-0.2,0.5-0.7,0.3-1,0c-1.6-1.4-3.1-2.9-4.7-4.3c-1.2-1.1-2.1-2.3-3.7-2.4
	c-3.8-0.4-7.9-1.2-11.4-2.8c-0.9-0.4-1.8-1.3-2.7-1.5c-1-0.3-1.2,0.7-1.5,1.5c-1,2.9-0.2,6.7,0.7,9.5c0.7,2.2,1.7,4.2,2.6,6.2
	c0,0.5,0.7,1.4,0.9,1.9c0.2,0.5,0.5,1.4-0.3,1.1c-0.2-0.1-0.6-0.6-0.8-0.8c-0.5-0.6-1-1.2-1.5-1.8c-0.8-1.2-1.5-2.5-1.9-3.8
	c-0.2-0.5-0.3-1-0.6-1.4c-0.7-1.1-1.6-0.7-2.7-0.6c-1.2,0-2.5,0.2-3.7,0.4c-2,0.3-4,0.9-5.7,2.1c-2.3,1.6-0.2,2,1.7,3.8
	c1,0.9,1.8,1.9,2.6,2.9c-1.8,1.4-2.8,3-2.8,4.6c0,7.6,22,13.7,49.2,13.7c27.2,0,49.2-6.1,49.2-13.7
	C230.7,314.4,230.1,313.3,229,312.1z"/>
<path fill="#39B24A" d="M383.5,312.9c-0.5-2.5-2.2-4.8-4.3-6.2c-0.9-0.6-1.7-0.9-2.8-0.9c-0.5,0-2.9,0.1-3,0.8
	c0.2-1.3,0.7-2.8,0.2-4.1c-0.4-1.1-1.3-2-2.4-2.5c-0.2-0.1-0.8-0.2-1.3-0.3c-0.7-0.1-1.4-0.2-1.6,0.1c1.6-2.8,1.1-6.5-0.9-9.1
	c-2.8-3.6-7.1-4.2-11.3-4.1c-2,0-4,0.5-5.7,1.3c-1.6,0.8-2.8,1.6-2.4,3.5c0.2,1.1,0.2,2.2,0.1,3.4c-0.1,0.6-0.4,2.3-1.1,1
	c-1.1-2.1-1.4-4.5-2.7-6.5c-1.2-1.9-2.6-3.5-4.4-4.9c-3.1-2.5-7-3.3-10.8-2c-2.9,1-6.3,4.1-6.9,7.3c-0.2,1.3-0.4,2.5-0.3,3.8
	c0,0.5-0.7,0.7-0.9,0.3c-0.7-1.6-1-3.5-0.7-5.3c0.2-1.6,1.1-2.6-0.1-3.9c-1.6-1.8-4.4-2.7-6.7-3c-2.9-0.5-6.2,0-8.5,1.8
	c-2.2,1.7-3.1,4.4-2.8,7.1c0.1,1.4,0.5,2.6,1.2,3.8c0.9,1.6-1,1.3-1.7,0.2c-1-1.6-1.1-4.3-3.2-4.9c-1.8-0.5-3.9-0.1-5.7,0.2
	c-2.9,0.5-5.7,2.2-7.1,4.9c-1.4,2.7-0.9,6.2,1.4,8.2c-2.4,0.3-4.7,1.6-6.2,3.5s-2.1,4.5-1.7,6.9c-2.1,1.2-2,3.6-1,5.4
	c1.3,2.3,3.9,3.8,6.2,5c3.7,1.8,7.7,3,11.8,4c11.4,2.7,23.3,3.6,35,3.6c29.6,0,53.7-6.7,53.7-14.9
	C384.9,315.1,384.4,314,383.5,312.9z M304.2,309.2c-0.4,1.2-1.9,0.1-2.5-0.2c-1.6-1-3.2-1.9-5.2-1.6c-1.9,0.3-3.7,1.7-4.5,3.5
	c-0.1,0.3-0.3,0.7-0.5,1c-1.7,1.9-0.8-2.6-0.4-3.2c1.3-2.4,3.8-4.2,6.5-4.2c2.5-0.1,4.9,1.3,6.2,3.4c0.2,0.4,0.4,0.8,0.4,1.3
	C304.2,309.1,304.2,309.1,304.2,309.2z M319.8,320.3c-0.4,0-0.7-0.3-1-0.6c-1.5-1.4-3.6-2.2-5.7-1.9c-1.6,0.2-3.1,0.9-4.2,2.1
	c-0.4,0.4-0.8,1.2-1.4,1.2c-1-0.1-0.3-1.5-0.1-2c1.4-2.3,4.2-4.9,7-4.3c1.4,0.3,2.7,1,3.7,1.8C318.6,316.9,321.5,320.4,319.8,320.3z
	 M335.9,309.3c-0.3,0.2-0.7,0.1-0.9,0c-0.3-0.2-0.5-0.5-0.7-0.8c-3.1-4.4-9.4-5.1-13.7-2.1c-0.6,0.4-3,3.4-3.8,2.1
	c-0.2-0.4,0.4-1.3,0.6-1.7c0.5-1,1.3-2,2.1-2.8c2-1.9,4.6-2.8,7.2-2.7c1.4,0.1,2.7,0.4,4,1c2.4,1.1,4.3,3.2,5.2,5.6
	C336.1,308.5,336.2,309.1,335.9,309.3z M357.3,319.4c-0.2,1.9-1,0-1.2-0.8c-0.6-1.9-1.4-4-3.5-4.7c-1.8-0.6-4.2,0.2-5.8,1.2
	c-0.3,0.2-2.8,2.5-2.2,1.1c1.2-2.8,5.3-5.6,8.4-4.2c1.3,0.6,2.4,1.6,3.1,2.8C357,316.2,357.5,317.8,357.3,319.4z M364.3,310
	c-0.3-0.2-0.3-0.6-0.4-0.9c-0.4-2-1.7-3.7-3.6-4.6c-1-0.4-2-0.6-3.1-0.6c-0.7,0-3.3,1.3-2.6-0.4c0.7-1.8,4-2.1,5.6-1.8
	c3.5,0.7,4.6,3.2,5.2,6.4C365.6,308.6,365.3,310.8,364.3,310z"/>
<path fill="#686868" d="M232,309.4c-0.2,0.8-0.5,1.6-0.9,2.4c0.9,1.2,1.4,2.5,1.4,3.8c0,10-26.2,15.4-50.9,15.4s-50.9-5.4-50.9-15.4
	c0-1.7,0.7-3.3,2.2-4.8c-0.5-0.5-0.9-1-1.4-1.5c-0.1-0.1-0.1-0.1-0.2-0.1c-3.2,1.9-5,4.1-5,6.4c0,21,12.1,45.9,55.2,45.9
	c43.2,0,55.2-21,55.2-45.9C236.8,313.5,235,311.3,232,309.4z M171,355.6c-0.1,0.1-0.3,0.3-0.7,0.4c-1.6,0.5-5.6-0.5-7.2-0.9
	c-4.4-1.2-8.7-3.2-12.2-6.1c-2.9-2.5-5.6-5.2-7.7-8.4c-1.6-2.4-4-7.3-3.5-10.2c0.5-2.9,4.6-0.5,6.5,0.1c3.2,1,6.5,1.7,9.8,2.4
	c1.7,0.3,3.4,0.6,5.1,1c1,0.2,3.5,0.2,4,1.3c0.1,0.4,0,0.8-0.3,1.1c-0.3,0.3-0.7,0.5-1,0.6c-1.8,0.7-4.3-0.3-5.3,1.5
	c-0.7,1.2-0.5,2.6-0.1,3.8c0.8,2.6,2.6,5,4.7,7C163.9,349.9,171.6,354.8,171,355.6z"/>
<path fill="#686868" d="M382.6,307.5c1.2,1.4,2.1,3,2.5,4.7c1,1.3,1.5,2.7,1.5,4.1c0,10.8-28.5,16.6-55.3,16.6s-55.3-5.8-55.3-16.6
	c0-1.2,0.3-2.3,1-3.4c-0.1-1.4,0.4-3,1.4-4.6c-4.7,2.4-7.3,5.1-7.3,8c0,22.9,13.2,50.1,60.2,50.1c47.1,0,60.2-23,60.2-50.1
	C391.4,313,388.2,310,382.6,307.5z M316.1,359.7c-0.1,0.2-0.3,0.3-0.7,0.4c-1.6,0.5-5.6-0.6-7.2-1c-4.4-1.3-8.7-3.4-12.2-6.5
	c-2.9-2.6-5.6-5.6-7.7-9c-1.6-2.6-4-7.9-3.5-10.9c0.5-3.1,4.6-0.5,6.5,0.1c3.2,1.1,6.5,1.9,9.8,2.6c1.7,0.4,3.4,0.7,5.1,1
	c1,0.2,3.5,0.2,4,1.4c0.1,0.4,0,0.8-0.3,1.2c-0.3,0.3-0.7,0.5-1,0.7c-1.8,0.7-4.3-0.3-5.3,1.6c-0.7,1.2-0.5,2.7-0.1,4.1
	c0.8,2.8,2.6,5.4,4.7,7.5C309,353.6,316.7,358.8,316.1,359.7z"/>
<path fill="#F9AE41" d="M128.4,184.3c-1.1-1.3-3.1-4-4.7-4.6c-1.7-0.6-3.7,1.3-5.3,2.3c-1.6,1-9.7,8.4-11.7,7.2
	c-2.1-1.3,2.8-4.6,3.7-5.5c2-2.1,4-4.2,5.8-6.4c1.4-1.7,0.7-1.8-1.4-2.8c-3.2-1.6-4.5-1.4-7.3,0.7c-2.1,1.5-4.1,3.4-5.9,5
	c-3.1,2.7-6.1,5.8-9.8,7.9c-0.6,0.4-1.4-0.4-1-1c2.7-4.3,6.8-7.4,10.4-11c0.8-0.8,4.6-4,3.6-5.2c-0.7-0.8-6.3-0.5-7.5-0.5
	c-4,0-7.9,0.6-11.6,1.8l-1.1,0.3c-2.1,1.7-4.1,3.5-6,5.4c-3.5,3.7-7.9,7-10.3,11.6c-2.4,4.6-2.6,11-1.2,15.9c1.4,4.8,7,6.9,11.1,8.9
	c5,2.5,10.4,4.9,15.6,7.1c5.6,2.4,11.8,3.6,17.5,0.6c6.4-3.4,12.2-10.3,17.7-15.1c2.8-2.4,5.5-4.8,8.3-7.2
	C135.3,194.2,132.2,188.8,128.4,184.3z M124.4,193.4c-0.3,0.8-1.6,2.3-2.3,3c-3.1,2.9-6.2,5.8-9.3,8.8c-1.3,1.2-2.3,2.5-3.6,3.7
	c-2,1.9-3.4,3.7-3.2,6.5c0,0.6,0.1,1.4-0.4,1.7c-0.6,0.4-1.4,0-1.7-0.6c-0.7-1.5-0.5-2.2-1.9-3.5c-1.3-1.2-2.8-2.2-4.4-3.1
	c-3-1.7-6.2-3-9.2-4.7c-4.7-2.7-9.7-5.3-13.9-8.7c-0.3-0.3,0-0.8,0.4-0.7c8.3,3,15.2,8.4,23.5,11.3c2.5,0.9,4.1,1.5,6.2,0
	c2.3-1.5,4.5-3.4,6.7-5.1c2.4-1.9,4.7-3.9,7.1-5.8c1.3-1.1,2.6-2.7,4.2-3.3C124.2,192.5,124.6,192.8,124.4,193.4z"/>
<path fill="#F9AE41" d="M170.7,139.6c-0.8-0.4-1.7-0.7-2.6-1.2c-5.8-2.6-11.9-4.7-18-6.4c-4.5-1.2-9.1-3.1-13.5-0.9
	c-4.1,2.1-7.9,4.8-11.5,7.6c-3.5,2.7-7,5.5-10.4,8.3c0.9,0,1.8-0.1,2.7-0.1c4.8,0,9.6,0.7,14.2,1.9c1.6,0.4,3.9,1.8,5.4,1.1
	c1.8-0.7,3.1-3.2,5-2.9c-0.5,1.2-0.9,2.4-1.4,3.6c-0.5,1.3,2.2,3.4,3.3,3.5c1.4,0.1,3.4-1.8,4.4-2.7c1.8-1.5,3.5-3.3,5.5-4.6
	c0.5,0,4-3.2,2.6-0.5c-1.4,2.5-3.3,4.8-5,7.2c-0.4,0.6-0.9,1.3-1.1,2c-0.5,1.8,0.8,3,2,4c1.5,1.4,3,2.8,4.4,4.3
	c3.2,3.5,6,7.6,8.2,12.1c0.8-0.7,1.6-1.4,2.4-2.1c5-4.3,11-9,11.2-16c0.1-2.4,0.2-4.9,0.3-7.3C179.2,143.9,175.6,141.8,170.7,139.6z
	 M174.7,149.6c-1,2.8-4.7,5-6.9,6.9c-1.9,1.6-4.1,4.1-6.6,4.4c-0.8,0.1-1.1-1-0.6-1.5c2.1-2.2,4.5-4.1,6.8-6.1
	c1.9-1.6,3.9-4.3,6.4-4.9C174.2,148.5,174.9,149,174.7,149.6z"/>
<path fill="#0C301F" d="M169.2,195c-0.3-2.1-0.7-4.1-1.2-6.2c-2.2-8.7-6.2-17-12.4-23.9c-11-12.1-29.7-18.5-46.1-15.7
	c-2.8,0.5-5.9,1.9-7.8,4c-1.9,2,0.4,1.8,2.1,2.2c2.5,0.6,1.8,3.1,5.6,2.6c1.7-0.2,3.4-0.6,5.1-1.1c2-0.5,3.7-0.7,5.8-0.5
	c2.1,0.2,4.1,1.2,5.7,2.6c0.4,0.4,0.8,1,1.2,1.8c0.7,1.3,1.4,2.7,2,3.1c-3.2-1.7-6.7-4.8-10.4-4.9c-3.1-0.1-6.1,1.2-9.1,1.6
	c-1.3,0.2-3.3-0.1-4.4-0.8c-2.9-2.1-5.2-1.2-8.3-0.3c-3.3,0.9-5.2,2.8-7.7,5.3c-0.9,0.9-1.8,1.8-2.5,2.9c-0.3,0.4-1.2,3-1.4,3.1
	c15.5-4.9,34,0.4,44.4,12.6c10.3,12.2,14.9,29.5,13.3,44.8c-0.2,2.2,0.4,4.1,2.9,4.1c5.5,0,6.7-6,7-10.2c0.3-3.7,0.4-9.8-4.1-11.1
	c-0.6-0.2-0.8-0.6-0.9-1.2c-0.4-3.3,0.3-6.2,0.5-9.4c0.2-4.1-1.8-7.9-4.1-11.2c-2.3-3.3-5.1-4.6-6.6-8.6c-0.8-2.2-1.9-4.7-4.1-5.5
	c-0.7-0.2-1.5-0.3-2.1-0.6c-0.6-0.4-1.1-1.2-0.7-1.8c1.1-1.8,7.8,2.2,8.7,3.1c2.4,2.7,1.8,6.7,4.3,9.6c1.1,1.3,2.6,2.3,3.8,3.5
	c3.2,3.2,3.8,9.5,3.2,13.8c-0.6,4.5-0.8,4.9,1.7,7.7c1.6,1.9,2.3,3.4,2.6,5.9c0.3,2.2-0.1,4.4-0.5,6.6c-0.2,1.4-1.3,4.8,1.3,4.6
	c1.6-0.1,3.4-3.1,4.2-4.3c2.2-3.5,3.1-7.7,3.1-11.8c0-1.8,0.3-4.5-0.4-6.1c-0.4-1-1.1-2-1.6-3c-0.9-2.2,0.1-4.2,0.1-6.4
	c-0.1-2-0.5-3.8-1.9-5.4c-0.4-0.5-0.9-1-1-1.6c-0.1-0.6,0.4-1.4,1-1.2c0.3,0.1,0.5,0.4,0.7,0.6c1,1.5,2.3,2.9,3,4.5
	c0.8,1.8,0,4,0.1,5.9c0.2,2.5,1.3,4.4,1.9,6.7c0.7,2.6,0.3,5.3,0.4,7.9c0.1,3.1,1.8,1.8,2.6-0.1c0.5-1.4,0.8-3,1.1-4.5
	C170.2,204,169.8,199.4,169.2,195z"/>
<path fill="#0C301F" d="M434.6,199.9c-0.3-2.1-0.7-4.2-1.1-6.3c-2.1-8.9-6-17.5-12-24.4c-10.7-12.4-29-18.8-45.1-15.8
	c-2.1,0.4-11.9,4.6-10.2,7.6c0.7,1.3,2.9,0.3,4.1,0.6c4.7,1.2,7.5,4.2,12.8,2.9c3-0.8,6.5-0.8,9,1.2c1.2,1,2.2,2.5,2.5,4
	c0.5,2.3-1.4,2.1-2.7,0.6c-0.7-0.8-1.2-1.8-1.9-2.6c-2.7-2.9-7.9,0.6-11.1,0.6c-1.8,0-3.6-1.2-5.1-2c-3.1-1.7-7.7-1.9-11.2-1.1
	c-2.4,0.6-5.1,3-6.7,4.8c-0.8,0.8-1.5,1.7-2,2.7c-0.2,0.3-0.9,2.6-1.2,2.7c15.2-5.2,33.4,0.1,43.4,12.7c10,12.5,14.4,30.2,12.7,45.9
	c-0.3,3,0.9,4.9,4,4.1c3.5-0.9,8.8-4.2,8.5-8.3c-0.2-4.2-1.9-5.1-2.9-8.4c-1.3-4.5,2.7-11.7-0.7-15.2c-0.8-0.8,0.3-1.8,1.2-1.2
	c1.7,1.3,3,3.3,2.7,5.7c-0.5,5.1-0.6,9.4,1.6,14.2c1,2,1.2,6.2,4.1,3.1c3.5-3.9,6.8-6.2,7.4-11.6C435.4,211,435.3,205.4,434.6,199.9
	z M423.7,199.7c-1.2-1.5-1.6-2.6-1.7-4.6c-0.3-3.3,0.2-5.2-4.2-6.7c-1.6-0.6-1.6-0.5-2.9-1.5c-2.6-1.9-2.4-7.1-3-9.9
	c-0.4-1.6-0.8-3.2-2.2-4.1c-1-0.6-3.8-1.1-2.9-2.9c1.1-2,4.5,0.9,5.5,1.6c2.8,2.2,1.7,7.1,2.6,10c1.6,5,6.7,3.6,9,7.5
	c1.5,2.5,1,6.6,1.8,9.4C425.8,199.6,424.4,200.6,423.7,199.7z"/>
<g>
	<path fill="#D7D7D7" d="M427.7,30.4c0.4-1,0.3-2.2-0.3-3.2c-0.7-1.2-2.1-1.3-2.7-2.4c-0.7-1.3-0.4-2.5-1.7-3.6
		c-0.8-0.7-1.9-1-2.9-1c0.1,0.4,0.1,0.8,0.1,1.2c0,0.2,0,0.5,0,0.8c1,1,1.5,2.4,1.5,3.8c0,0.5-0.1,1-0.2,1.5
		c0.5,0.8,0.8,1.8,0.8,2.8c0,1.2-0.4,2.4-1.1,3.3c0.2,1.6-0.2,3.2-1.1,4.4c-0.9,1.2-2.2,1.8-3.8,1.8c0,0-0.1,0-0.1,0
		c-0.5,2.6-2.6,4.5-5,4.5c-0.6,0-1.3-0.1-1.8-0.4c-1,1.4-2.5,2.3-4.2,2.3c-0.1,0-0.3,0-0.4,0c-0.9,1.8-2.6,3-4.5,3
		c-1.2,0-2.4-0.5-3.4-1.4c-0.9,0.9-2.1,1.4-3.3,1.4c-1.5,0-2.9-0.7-3.8-1.9c-0.4,0.1-0.9,0.2-1.3,0.2c-0.8,0-1.6-0.2-2.3-0.6
		c-0.7,0.9-1.8,1.4-3,1.4c-0.4,0-0.8-0.1-1.1-0.2c-0.8-0.3-1.5-0.8-2-1.5c0,0,0,0-0.1-0.1c-0.5,0.2-1,0.3-1.5,0.3
		c-1.9,0-3.6-1.2-4.5-2.9c-0.1,0-0.2,0-0.2,0c-2.3,0-4.1-1.4-4.9-3.6c-2.5-0.6-4.3-3-4.3-5.9c0-1.1,0.3-2.2,0.8-3.2
		c-0.4-0.8-0.6-1.7-0.6-2.6c0-2.2,1.1-4.2,2.9-5.3c0.1-1.2,0.5-2.5,1.3-3.5c-1.7-0.5-3.6-0.2-4.9,0.9c-1.7,1.3-2.4,3.6-1.9,5.7
		c-1.9,0.3-3.6,1.7-4.1,3.6c-0.6,2.1,0.5,4.1,2.4,5.2c-1,1-1.3,2.5-0.8,3.8c0.5,1.3,1.7,2.3,3.1,2.4c-0.1,1.3,0.4,2.7,1.5,3.6
		c1.1,1,2.9,0.5,3.7,1.2c0.9,0.7,0.8,2.5,2.1,3.4c1.2,0.8,2.8,0.9,4.1,0.4c0.6,1.2,1.7,2,2.9,2.5c1.3,0.5,2.7,1.5,4,0.7
		c0.8-0.5,1.5-1.2,2.3-1.2c1,0,1.8,0.8,2.6,1.4c2,1.4,4.9,1.3,6.8-0.1c-0.3,0.2,4.4,1.8,5,1.8c2.4,0,3.8-1.5,6.1-1.1
		c2,0.3,4.3,0,5.3-2.1c0.9,1.2,2.8,0.9,4,0.2c1.3-0.8,2.3-1.9,3.6-2.6c1.4-0.7,3-0.7,4.4-1.3c1.4-0.6,2.6-2.4,1.7-3.7
		c1.1,0.7,2.6,0,3.2-1.2c0.6-1.1,0.7-2.5,0.8-3.7c0.1-1.3,0.4-2.3,1.2-3.3c0.7-0.8,1.4-1,1.5-2.3c0-0.1,0-0.1,0-0.2
		C429.4,32.4,428.8,31.1,427.7,30.4z"/>
</g>
<path fill="#EE4036" d="M420.5,30.4c0-1-0.4-1.9-1-2.5c0.3-0.5,0.4-1.1,0.4-1.8c0-1.3-0.7-2.5-1.7-3.1c0.1-0.5,0.2-0.9,0.2-1.4
	c0-2.7-2-4.9-4.4-4.9c-0.4-1.4-1.5-2.6-2.8-3c-0.6-2.2-2.4-3.8-4.5-3.8c-1,0-1.9,0.4-2.6,1c-0.5-0.6-1.1-1.1-1.8-1.4
	c-0.5-1.7-1.9-2.9-3.6-3.2c-1.4-0.2-2.7,0.5-3.6,1.4c-1,1.1-1.1,2.3-1.7,3.6c-0.3,0.1-0.7-0.1-0.9-0.4c-0.2-0.3-0.3-0.6-0.4-1
	c-0.6-1.3-1.7-1.1-2.7-1.7c-0.8-0.5-1.1-1.3-2.2-1.3c-1.4,0-2.7,0.8-3.5,1.9c-0.6,0.8-1.3,1.8-0.4,2.5c0.2,0.2,1,0.1,1.4,0.3
	c0.6,0.3,1.1,1,1.5,1.6c0.6,1,1.1,2,2,2.7c0.8,0.6,1.8,1,2.8,0.8c1.6-0.2,2.7-1.6,4.2-2.1c0.6-0.2,1.3-0.3,2-0.3
	c1.3,0,2.6,0.6,3.2,1.8c0.1,0.3-0.2,0.6-0.4,0.4c-1.2-0.8-3.6-1.6-4,0.4c-0.3,1.4,1.1,2.7,2.1,3.5c0.6,0.4,1.7,0.7,1.5,1.7
	c-0.3,1.3-1.9-0.8-2.2-1c-0.8-0.5-1.8-0.6-2.7-0.5c-2.2,0.3-4.1,1.5-5,3.6c-0.3,0.7-0.2,3-1.3,2.7c-0.8-0.2-1-2.2-1.6-2.7
	c-0.4-0.4-1.1-0.5-1.6-0.2c-1.9,0.9-0.9,4.1,0.2,5.1c0.2,0.2,0.4,0.3,0.5,0.5c0.1,0.2,0.2,0.5,0,0.7c-0.2,0.3-0.7,0.2-1.1,0
	c-2-0.7-5.2,0.1-6.3,2c-0.2,0.3-0.8,2.1-1.3,0.9c-0.3-0.7,0.7-2.2,1.2-2.7c1.3-1.4,4.3-3.8,2.1-5.9c-0.8-0.8-2.5-1-3.4-0.6
	c-0.2,0.1-2.4,1.8-2.4,1.8c-0.8-3.2,4.1-5.2,6.5-4.9c1.7,0.2,6.9,0,5.4-3c-0.2-0.5-0.7-0.7-1.1-1.1c-0.4-0.6-0.5-1.1-0.8-1.8
	c-0.6-1.4-1.6-2.2-3.2-2.2c-1.1,0-1.7,0.6-2.6,0.8c-0.7,0.2-1.3-0.1-2.1-0.1c-2.4,0-4.3,2.2-4.3,4.9c0,0.2,0,0.5,0.1,0.7
	c-2.4,0.4-3.5,2.7-3.3,5c-1.7,0.6-2.9,2.3-2.9,4.2c0,1,0.3,1.9,0.9,2.7c-0.7,0.8-1.1,1.9-1.1,3.1c0,2.4,1.8,4.4,3.9,4.4
	c0,0,0.1,0,0.1,0c0.3,1.8,1.5,3.4,3.6,3.4c0.5,0,0.9-0.1,1.3-0.3c0.3,1.8,1.7,3.2,3.4,3.2c0.8,0,1.6-0.4,2.2-1c0,0.1,0,0.1,0,0.2
	l0.3,0.7c0.3,0.4,0.4,0.6,0.4,0.6c0.3,0.5,0.7,0.8,1.2,1c0.9,0.3,2.2-0.2,2.7-1.2c0.1-0.3,0.2-0.6,0.3-0.9c0.2,0.1,0.3,0.1,0.5,0.2
	c0.6,0.8,1.5,1.3,2.5,1.3c0.5,0,1-0.1,1.4-0.3c0.3,0,0.5,0.1,0.8,0.1c0.6,1.1,1.7,1.9,2.9,1.9c1.1,0,2.2-0.7,2.8-1.7
	c0.3,0,0.7,0,1-0.1c0.6,1,1.7,1.7,2.8,1.7c1.7,0,3.1-1.4,3.4-3.2c0.1,0,0.2-0.1,0.2-0.1c0.4,0.2,0.8,0.3,1.3,0.3
	c1.4,0,2.7-1.1,3.2-2.5c0.2-0.1,0.4-0.2,0.6-0.4c0.6,0.6,1.4,0.9,2.2,0.9c1.8,0,3.3-1.6,3.4-3.6c0.3-0.2,0.6-0.6,0.7-0.9
	c0.3,0.1,0.6,0.2,0.9,0.2c2.6,0,3.6-2.8,3-5C420,32.5,420.5,31.5,420.5,30.4z"/>
<path fill="#0C301F" d="M305.5,73.7c-1.4-0.8-4.1,1.1-5.4,1.6c-1.9,0.6-3.8,1.2-5.5,2.2c-1.2,0.7-2.2,1.7-2.6,3
	c-0.1,0.2-0.1,0.4-0.2,0.5c-0.9,0.7-0.3-2.2-0.2-2.5c0.4-1,1-1.8,1.8-2.5c1.6-1.4,3.6-2.3,5.6-2.9c1.6-0.6,3.3-1.2,4.7-2.1
	c3.3-2.2,2.5-6.5,2.5-9.9c0-4.4,0-8.8,0-13.2c0-5.6,0-11.3,0-16.9c0.2-1.3-0.3-2.8-2-4.3c-2-1.8-4.2-3.4-6.4-4.9
	c-4.6-3-9.6-5.5-14.6-8.1c-7.3-3.8-16-7.8-24.2-9.3c-1-0.2-2-0.2-3-0.1c-3.1,0.3-6.3,1.5-9.1,2.4c-5.5,1.8-10.8,4.2-16,6.8
	c-11.3,5.5-21.3,13.8-21.3,13.8c-1.5,1.2-2.1,2.5-2,3.7c0,3.3-0.3,6.5-0.1,9.8c0.2,3,0.4,5,3.2,6.5c1.5,0.8,3.4,1.1,4.8,1.9
	c3.7,2.1,4.7,7.3,9.4,8.1c2.6,0.4,5.5,1.1,7.8,2.6c1.6,1,2.8,2.8,3.4,4.6c0.2,0.6,0.7,2.3-0.3,1.9c-0.6-0.2-0.8-1.3-1.1-1.8
	c-0.5-0.7-1-1.4-1.6-2.1c-1.3-1.5-3-2.3-5-2.4c-0.9-0.1-2.9-0.1-3.8-0.4c-2.5-0.7-5-1.9-6.6-4.1c-1.7-2.4-5.2-4.6-7.9-5.7
	c-3.3-1.3-2.2,3.9-2.2,5.5c0,1.8,0,3.7,0,5.5c0,1.4-0.3,3.1,0.9,4.2c1.1,1.1,2.8,0.3,4,1.1c0.9,0.6,1.5,2.1,2.1,3
	c0.4,0.7,0.8,1.3,1.4,1.8c0.6,0.5,1.3,0.9,2,1c0.4,0,0.8,0,1.1,0c0.5,0.1,0.9,0.6,0.6,1c-0.3,0.3-1.6,0.2-2,0.1
	c-1.3-0.1-2.5-0.5-3.5-1.3c-2-1.6-1-3.9-4.3-3.9c-3.5,0-2.3,4-2.3,6.5c0,2.4,0,4.8,0,7.1c0,2.1,0,4.2,0,6.3c0,0.6-0.3,2.2,0,2.7
	c0.3,3.2,5.2,6.1,7.8,8c5.3,3.8,10.9,7,16.6,10c5.2,2.8,10.9,4.8,16.5,6.5c2.9,0.9,5.8,2.1,8.9,2.1c2.8,0,6.9-1.7,9.5-2.7
	c6.1-2.3,10.7-4.6,16.6-7.5c5.4-2.7,10.5-5.8,15.4-9.3c2.6-1.9,6.7-4.3,7.2-7.3c0.1-0.4,0.1-0.8,0-1.2c-0.5-2.9,0-6.3,0-9.2
	c0-1.5,0.6-4.8-0.3-6.1C305.8,74,305.7,73.8,305.5,73.7z M236.2,45.6C236.2,45.6,236.2,45.6,236.2,45.6c-0.3,0-0.6,0.1-1,0.1l-0.2,0
	c-0.9-0.1-1.8-0.4-2.5-0.8c-0.8-0.5-1.4-1.2-1.8-2c-0.5,0.2-1,0.2-1.5,0.2c-0.7,0-1.5-0.2-2.1-0.5c-1.2-0.6-2.1-1.8-2.5-3.1
	c-1,0-2-0.4-2.7-1.1c-0.8-0.8-1.2-1.8-1.2-2.9c-0.7-0.3-1.1-0.6-1.2-0.7c-1.4-1-2.3-2.4-2.3-3.7c0-0.8,0.2-2,1.4-3
	c0.4-0.3,0.8-0.6,1.3-0.8c0-0.5,0.2-1,0.4-1.5c0.5-1,1.5-1.6,2.6-1.8c0.4-1.6,1.4-3,2.8-3.8c1-0.6,2.2-1,3.4-1c0.4,0,0.8,0,1.2,0.1
	c1-1.9,3.1-3.2,5.4-3.2c0.1,0,0.2,0,0.3,0c0.9-1.4,2.6-2.5,4.4-2.5c0.2,0,0.4,0,0.5,0c0.5-1.1,1.4-1.9,2.5-2.5
	c0.7-0.3,1.4-0.5,2.2-0.5c0.6,0,1.2,0.1,1.8,0.3c1.3-1,3.2-1.8,3.2-1.8c0.5-0.1,1-0.2,1.5-0.2c0.9,0,1.7,0.2,2.4,0.5
	c0.2-0.2,0.5-0.4,0.8-0.6c0.8-0.5,1.7-0.9,2.6-1c0.2,0,0.3,0,0.5,0c1.4,0,2.9,0.5,4,1.5c0.5-0.3,1.2-0.5,1.8-0.5c0.2,0,0.4,0,0.6,0
	c1,0.2,1.9,0.8,2.4,1.7c0.1,0.1,0.1,0.2,0.2,0.4c0,0,0.1,0,0.1,0c1.9,0,3.6,1,4.5,2.6c0.2,0,0.4,0,0.6,0c1.8,0,3.6,0.8,4.7,2.2
	c0.2,0,0.3,0,0.5,0c1.3,0,2.6,0.6,3.5,1.6c0.2,0.3,0.4,0.5,0.6,0.8c0.1,0,0.3,0,0.4,0c1.5,0,3,0.7,4.1,1.8c0.5,0.5,0.9,1.1,1.1,1.7
	c1.8,0.1,3.4,1.4,4,3.1c1.5,0.6,3.4,1.8,3.8,2.7c0.3,0.8,0.4,1.6,0.2,2.4c0.5,1,0.6,2.1,0.3,3.2c-0.3,0.9-0.9,1.6-1.6,2.2
	c-0.3,0.2-0.6,0.3-0.9,0.4c-0.1,0.4-0.3,0.9-0.6,1.3c-0.4,0.6-1,1.1-1.6,1.4c-0.7,0.4-1.6,0.6-2.5,0.6c-0.3,0.8-0.8,1.5-1.4,2
	c-0.7,0.6-1.7,1-2.6,1.1c-0.1,0-0.2,0-0.3,0c0,0,0,0-0.1,0c-0.1,0.6-0.3,1.5-1.1,2.1c-0.8,0.6-1.7,1-2.8,1c-0.1,0-0.1,0-0.2,0
	c-0.7,1.1-1.8,2-3.1,2.5c-0.6,0.2-1.3,0.3-2,0.3c-0.6,0-1.2-0.1-1.8-0.3c-0.6,1-1.4,2-2.7,2.6c-0.7,0.3-1.5,0.5-2.3,0.5
	c-0.5,0-1-0.1-1.5-0.2c-0.8,1.1-2,2-3.3,2.4c-0.7,0.2-1.4,0.3-2.1,0.3c-0.2,0-0.5,0-0.7,0c-0.4,0-0.8-0.2-1.2-0.3
	c-0.2,0.3-0.5,0.6-0.8,0.8c-0.7,0.4-1.5,0.7-2.2,0.7c-0.1,0-0.2,0-0.4,0c-1.2-0.1-2.2-0.7-2.9-1.6c-0.4,0.1-0.7,0.1-1.1,0.1
	c-0.6,0-1.3-0.1-1.9-0.4c-1-0.4-1.8-1.2-2.3-2.2c-1.1,0-2.2-0.4-3.1-1c-0.7-0.4-1.3-1-1.7-1.7c-0.7,0.3-1.5,0.4-2.2,0.4
	c-0.4,0-0.9,0-1.3-0.1c-0.9-0.2-1.7-0.6-2.5-1.2C236.7,46.4,236.5,46,236.2,45.6z M281,89.2C280.9,89.3,280.9,89.3,281,89.2
	c-1.3,1.7-3.1,2.8-5.1,3.3c-3.2,0.8-6.6,0.1-9.7,1c-4.3,1.2-7.1,6.9-11.7,7c-3.1,0.1-5.3-1.9-7.5-3.8c-1.1-0.9-2.2-1.8-3.5-2.3
	c-1.5-0.6-3-0.8-4.3-1.9c-0.8-0.7-1.4-1.5-2.3-2.2c-1.1-0.8-2.3-1.1-3.7-1.1c-0.5,0-1,0.3-1.3-0.2c-0.2-0.3-0.2-0.8,0.2-0.9
	c1.8-0.6,3.8-1.4,5.6-0.4c0.9,0.5,1.5,1.4,2.2,2.1c2.2,2.3,5.7,2.2,8.1,4.2c3.7,3.1,6.3,4.9,10.4,1c2-1.9,4.3-4.2,7.3-4.5
	c3-0.3,6.1-0.4,9-1.2c1.1-0.3,2.3-0.7,3.3-1.3c0.9-0.6,1.6-1.5,2.7-1.9C282.7,85.6,281.6,88.4,281,89.2z M276.5,66.5
	c-1.3,1-2.8,2.3-4.4,2.6c-2.4,0.4-4.9,0.2-7.3,0.8c-0.6,0.2-3.7,1.6-3.9,0.6c-0.1-0.6,0.8-1.2,1.3-1.5c1.2-0.8,2.6-1.3,4-1.5
	c4.7-0.9,7.4-1.5,10.9-4.8c2-1.9,4.4-3.3,7-4.3c1.3-0.5,2.7-0.8,4-1.1c0.7-0.1,3.4-1.2,3.9-0.5c1.5,2-6.5,3.5-7.2,3.8
	C281.1,61.7,279.4,64.2,276.5,66.5z"/>
<path fill="#0C301F" d="M437.1,69.9c-0.9-0.1-1.3,1-1.8,1.6c-1.1,1.3-2.3,2.7-3.5,3.9c-1.1,1.1-1.9,2.4-3,3.5
	c-1.9,1.8-4.2,3.2-6.8,3.4c-1.8,0.2-3.6-0.3-5.5-0.4c-1.6-0.1-3.2,0-4.6,0.7c-1.2,0.6-2.8,1.2-4.1,0.4c-0.5-0.3-1.1-1-1.1-1.6
	c0-0.8,0.5-0.3,0.9-0.1c3.1,0.9,4.6-2.9,7.4-2.9c1.1,0,1.9,0.5,2.8,0.8c3.1,1,6.6-1.9,9.1-3.5c3.7-2.4,5.5-5.5,8.6-8.3
	c0.7-0.6,1.7-1.3,2.2-2.1c1.2-2.2,0.9-5,0.9-7.4c0-1.7,0-3.5,0-5.2c0-0.6,0.2-1.8-0.5-2.1c-0.6-0.3-1.4,0.6-1.8,0.9
	c-1.2,0.9-2.5,1.6-3.6,2.7c-1.1,1-1.4,2.5-2.5,3.5c-0.7,0.7-1.8,1.1-2.8,0.8c-0.7-0.2-1.2-0.6-0.4-1c0.5-0.2,1.1-0.3,1.6-0.7
	c1.4-1.1,1.8-3.2,3.2-4.5c1.3-1.2,2.8-2.1,3.9-3.4c3.2-3.9,2.9-9.4,2.9-14.2h0c0-0.4,0-0.7,0-1.1c0-1.5-0.2-3-0.7-4.4
	c-3.3-11-16.1-16.7-26.3-19.3c0.7,0.2,0.9,1.4,1.3,2c0.5,0.7,1.2,1.3,1.9,1.9c0.9,0.8,1.9,1.5,2.9,2.3c1,0.7,1.9,1.8,3,2.3
	c1.2,0.5,2.4,0.5,3.5,1.4c1.3,1,1.6,2.2,1.8,3.1c0.1,0.4,0.2,0.7,0.3,1c0.1,0.1,0.4,0.3,0.7,0.5c0.6,0.4,1.4,0.9,1.9,1.8
	c0.6,1,0.9,2.2,0.7,3.4c1,1,1.6,2.5,1.5,4c0,0.1,0,0.2,0,0.3c-0.2,1.5-0.9,2.2-1.4,2.7c-0.1,0.1-0.3,0.3-0.4,0.4
	c-0.6,0.7-0.8,1.3-0.9,2.4l0,0.4c-0.1,1.3-0.2,2.7-1,4c-0.6,1.1-1.7,1.9-2.8,2.1c0,0.1,0,0.1-0.1,0.2c-0.4,1.3-1.5,2.6-2.9,3.2
	c-0.8,0.4-1.7,0.6-2.5,0.7c-0.7,0.1-1.4,0.3-1.9,0.5c-0.6,0.3-1.1,0.7-1.7,1.2c-0.5,0.4-1.1,0.9-1.8,1.3c-0.9,0.6-2,0.9-3,0.9
	c-0.5,0-1-0.1-1.5-0.2c-1.1,1.1-2.6,1.6-4.4,1.6c-0.5,0-1,0-1.6-0.1c-0.2,0-0.3,0-0.5,0c-0.6,0-1.2,0.2-1.9,0.5
	c-0.9,0.3-2,0.7-3.3,0.7l-0.1,0c0,0-3-0.6-4.9-1.5c-1.1,0.6-2.3,0.8-3.5,0.8c-1.5,0-3.1-0.5-4.3-1.3c-0.2-0.1-0.4-0.3-0.6-0.5
	c-0.3-0.2-0.8-0.6-1-0.6c-0.2,0-0.6,0.3-0.8,0.5c-0.2,0.2-0.5,0.3-0.7,0.5c-0.6,0.4-1.2,0.5-1.9,0.5c-1.1,0-2-0.4-2.8-0.8
	c-0.2-0.1-0.5-0.2-0.7-0.3c-1.3-0.5-2.3-1.2-3.1-2.1c-0.3,0.1-0.7,0.1-1,0.1c-1.2,0-2.3-0.3-3.3-1c-1.2-0.8-1.6-1.9-1.9-2.8
	c-0.1-0.2-0.2-0.5-0.3-0.7c-0.2,0-0.5-0.1-0.7-0.1c-0.9-0.1-2.1-0.2-3.1-1.1c-1-0.9-1.7-2.2-1.9-3.6c-1.4-0.6-2.5-1.7-3-3.2
	c-0.5-1.3-0.4-2.7,0.2-4c-1.7-1.6-2.4-3.9-1.8-6.1c0.6-1.9,2-3.6,3.9-4.3c0-2.2,1-4.4,2.7-5.8c1.2-0.9,2.5-1.4,4-1.5
	c1.1-0.1,2.5,0.3,3.5-0.4c1.2-0.9,1.4-2.7,2.5-3.8c1.5-1.5,3.6-1.5,5.6-1.8c1.8-0.2,2.5-0.9,3-2.7c-3.2,0.2-6.7,1.4-9.8,2.4
	c-2.9,1-5.7,2.2-8.4,3.7c-4.5,2.5-8.7,5.8-11.3,10.3c-1.5,2.5-2.4,5.4-2.4,8.3c0,0.4,0,0.7,0,1.1c0,0,0,0,0,0c0,3.5,0,6.9,0,10.4
	c0,2.3,0,4.7,0,7c0,2.2,0.1,4.9,2.4,5.9c1.8,0.8,5.2,0.7,6.1,3.2c1.4,3.8,1.9,8.3,7.4,7.8c1.7-0.1,3.7-0.7,5.4-0.5
	c1,0.1,1.8,0.5,2.5,1.1c0.7,0.5,1.3,1,2.1,1.4c0.8,0.4,1.6,0.6,2.5,0.6c0.4,0,1.2-0.3,1.4,0c0.5,0.5-0.4,1.2-0.8,1.5
	c-0.7,0.4-1.4,0.2-2.1,0c-3.6-1-5.3-2.1-9.2-1.6c-3.7,0.5-8,0-10.1-3.9c-1.1-2-1.1-5.3-3.5-5.8c-1.1-0.2-2.8-1.2-3.7-0.1
	c-0.6,0.7-0.4,1.9-0.4,2.7c0,7.7,0,15.5,0,23.2c0,14.2,19.9,25.8,44.4,25.8s44.4-11.5,44.4-25.8c0-3,0-6,0-8.9c0-2.2,0-4.4,0-6.5
	C438.3,71.3,438.3,70,437.1,69.9z M406.5,95.9c-1.6,0.7-2.9,1.9-4.2,3c-1.5,1.3-3.1,2.1-5.1,1.4c-2.9-0.9-6.8,1.3-9.9,1.2
	c-1.4,0-2.9-0.6-4.2-1.3c-2.5-1.3-7.6-6-10.5-5.1c-1.2,0.4-2.6,0.9-3.8,0.6c-1.3-0.3-2.8-0.8-3.9-1.6c-1.1-0.7-1.6-2.2-2.1-3.4
	c-0.2-0.3-0.7-1-0.3-1.3c0.3-0.3,0.8,0,1,0.3c1.4,1.4,2.4,2.7,4.5,2.9c2,0.2,4-0.3,6.1-0.2c0.1,0,1.8-0.1,2.3,0.3
	c5.3,3.6,9.2,7.2,16,4.9c3.5-1.2,6.7,0.4,9.7-2.2c1.5-1.3,3.1-2.2,5.1-1.6c0.4,0.1,0.9,0.5,0.9,1c-0.1,0.5-0.5,0.7-1,0.8
	C406.8,95.7,406.7,95.8,406.5,95.9z"/>
<path fill="#0C301F" d="M300.2,213.1c-0.2,0-0.5,0.1-0.9,0.3c-1.7,0.8-2.8,2.9-4.1,4.1c-2.2,2.1-4.6,4.1-7.4,5.4
	c-2.4,1.2-4.5,2.3-7.2,2.1c-2.4-0.2-3.9-0.3-6.1,0.7c-1.9,0.9-3.5,1-5-0.7c-1.2-1.4,2.3-0.9,2.8-1c2-0.2,3.4-2.7,5.5-2.7
	c1.1,0,1.9,0.5,2.8,0.8c3.1,1,6.6-1.9,9.1-3.5c2.5-1.6,4.4-3.9,6.4-6.1c1.5-1.7,3.5-3.1,4.6-5.2c0.9-1.7,0.7-3.7,0.8-5.6
	c0-1.1,0.6-8.4-1.1-8.6c-0.3,0-1.1,1-1.4,1.2c-1.2,1-3,1.8-4,3.1c-0.8,1.2-1.5,2.3-2.5,3.2c-0.6,1.1-3.1,0.5-4,0.5
	c0.1-0.7,1-1,1.7-1.3c1.9-0.9,2.5-3.1,4-4.4c1.4-1.2,3.1-2.1,4.2-3.5c1.6-2,2.7-4.9,2.9-7.4c0-0.4,0-5.3,0-5.3h0c0-0.4,0-0.7,0-1.1
	c0-14.2-19.9-25.8-44.4-25.8c-24.5,0-44.4,11.5-44.4,25.8c0,0.4,0,0.7,0,1.1h0c0,0,0,8.8,0,9.4c0,2.3-0.1,4.6,0,7
	c0.1,2.8,1.3,4.5,3.9,5.4c1,0.3,2,0.6,2.9,1.1c2.3,1.3,2.2,4.7,3.3,7c1.2,2.3,3.2,3.4,5.8,3.2c1.7-0.1,3.7-0.7,5.4-0.5
	c1.5,0.1,2.9,0.9,4.2,1.5c0.7,0.3,1.4,0.6,2.1,0.8c0.9,0.2,3.1,0,2.3,1.6c-0.6,1.1-2.1,1-3.1,0.7c-3.6-1-5.3-2.1-9.2-1.6
	c-3.7,0.5-8,0-10.1-3.9c-1.1-2-1.1-5.3-3.5-5.8c-1.3-0.3-2.1-0.9-3.2,0.1c-0.8,0.7-0.9,1.7-0.9,2.8c0,1.3,0,2.6,0,3.9c0,3,0,6,0,9
	c0,3.8,0,7.6,0,11.4c0,14.2,19.9,25.8,44.4,25.8c24.5,0,44.4-11.5,44.4-25.8c0-4.8,0-9.5,0-14.3C301.4,216.2,301.9,213,300.2,213.1z
	 M240.2,198.2c-0.2-0.1-0.5-0.2-0.7-0.3c-1.2-0.5-2.3-1.2-3-2.1c-0.3,0.1-0.6,0.1-1,0.1c-1.2,0-2.3-0.3-3.3-1
	c-1.2-0.8-1.6-1.9-1.9-2.8c-0.1-0.2-0.2-0.5-0.3-0.7c-0.2,0-0.5-0.1-0.7-0.1c-0.9-0.1-2.1-0.2-3.1-1.1c-1-0.9-1.7-2.2-1.9-3.5
	c-1.4-0.6-2.5-1.7-3-3.1c-0.5-1.3-0.4-2.7,0.1-3.9c-1.7-1.6-2.3-3.8-1.7-6c0.5-1.9,2-3.5,3.8-4.3c0-2.2,0.9-4.4,2.7-5.7
	c1.2-1,2.8-1.5,4.4-1.5c0.4,0,0.8,0,1.2,0.1c0.2-0.4,0.4-0.8,0.7-1.2c1.1-1.3,3-2,5.3-2c0.8,0,1.5,0.1,2.2,0.3
	c0.8-1.3,2.1-2.3,3.6-2.8c0.4-0.1,0.8-0.2,1.3-0.2c0.9,0,1.7,0.3,2.4,0.5c0.5,0.2,0.8,0.3,1.1,0.3c0.5-0.1,0.9-0.4,1.4-0.7
	c0.8-0.6,1.8-1.2,3.2-1.4c0.2,0,0.4,0,0.6,0c1.2,0,2.4,0.3,3.4,0.9c0.3,0.2,0.5,0.3,0.7,0.4c0,0,0.5-0.2,0.5-0.2
	c1.3-0.5,2.4-0.7,3.5-0.7c1.4,0,2.8,0.4,4.2,1.2c0.3,0.2,0.7,0.3,1.2,0.3c0.4,0,0.7,0,1.1-0.1c0.5,0,1-0.1,1.5-0.1
	c1,0,2.5,0.2,4,1.5c0.2,0.1,0.3,0.3,0.4,0.4c0.2,0.2,0.5,0.5,0.6,0.5c0.1,0,0.2,0,0.4,0c0.1,0,0.3,0,0.4,0c0.2,0,0.4,0,0.6,0l0.2,0
	c2.3,0.1,4.7,1.8,5.9,3.7c0.1,0,0.3,0,0.4,0c1.5,0,2.9,0.5,4,1.4c1.3,1,1.6,2.2,1.8,3.1c0.1,0.4,0.2,0.7,0.3,1
	c0.1,0.1,0.4,0.3,0.7,0.5c0.6,0.4,1.4,0.8,1.9,1.8c0.6,1,0.9,2.2,0.7,3.4c1,1,1.6,2.5,1.5,3.9c0,0.1,0,0.2,0,0.3
	c-0.2,1.5-0.9,2.2-1.4,2.7c-0.1,0.1-0.3,0.3-0.4,0.4c-0.6,0.7-0.8,1.3-0.9,2.4l0,0.4c-0.1,1.2-0.2,2.6-1,3.9
	c-0.6,1.1-1.7,1.8-2.8,2.1c0,0.1,0,0.1,0,0.2c-0.4,1.3-1.5,2.6-2.8,3.2c-0.8,0.4-1.7,0.6-2.5,0.7c-0.7,0.1-1.3,0.3-1.9,0.5
	c-0.6,0.3-1.1,0.7-1.7,1.2c-0.5,0.4-1.1,0.9-1.7,1.3c-0.9,0.6-2,0.9-3,0.9c-0.5,0-1-0.1-1.4-0.2c-1.1,1-2.6,1.6-4.4,1.6
	c-0.5,0-1,0-1.5-0.1c-0.2,0-0.3,0-0.4,0c-0.6,0-1.2,0.2-1.9,0.5c-0.9,0.3-2,0.7-3.3,0.7h0l-0.1,0c0,0-2.9-0.6-4.9-1.5
	c-1,0.5-2.2,0.8-3.5,0.8c-1.5,0-3-0.5-4.2-1.3c-0.2-0.1-0.4-0.3-0.6-0.5c-0.3-0.2-0.8-0.6-1-0.6c-0.1,0-0.6,0.3-0.8,0.5
	c-0.2,0.2-0.5,0.3-0.7,0.5c-0.6,0.4-1.2,0.5-1.9,0.5C241.9,199,241,198.5,240.2,198.2z M269.7,239.2c-1.5,0.6-2.7,1.2-4.2,2.5
	c-1.6,1.4-3.2,2.4-5.4,1.6c-2.9-0.9-6.8,1.3-9.9,1.2c-1.4,0-2.9-0.6-4.2-1.3c-2.5-1.3-7.6-6-10.5-5.1c-1.2,0.4-2.6,0.9-3.8,0.6
	c-1.6-0.3-3.1-1-4.2-2.2c-0.4-0.5-2.7-3.8-1.6-4.2c0.2-0.1,0.5,0,0.6,0.2c0.1,0.2,0.2,0.4,0.3,0.6c1,2.3,3.8,2.8,6.1,2.5
	c4.4-0.7,7.5,1.1,11.1,3.3c3.5,2.2,7.2,3,11.2,1.7c2.8-0.9,6.1,0,8.7-1.5c0.9-0.5,1.3-1.3,2.3-1.7c1.5-0.7,3.3-0.9,4.9-0.5
	c0.4,0.1,0.7,0.2,1,0.5c0.3,0.3,0.4,0.7,0.1,1C271.3,238.6,270.5,238.9,269.7,239.2z"/>
<path fill="#F9AE41" d="M20.5,112.7c-0.1,17.1-2.3,146.4-2.5,163.5l-0.7,94.8c0,3.5-0.1,7-0.1,10.5c0.7,0.5,1.6,0.8,2.6,0.8l0.1,0
	c2.6,0.1,4.8-2,4.9-4.6l9.6-265H20.5z"/>
<path fill="#F9AE41" d="M13.9,381.3c0-4,0-7.9,0.1-11.9c0.1-8.4,0.5-84.9,0.6-93.3c0.1-17,1.8-146.4,2.1-163.5H1.6l4.7,264.8
	c0,2.6,2.2,4.7,4.8,4.7h0.1C12.2,382.2,13.1,381.8,13.9,381.3C13.9,381.3,13.9,381.3,13.9,381.3z"/>
<g>
	<path fill="#F9AE41" d="M16.6,28c0-4,0-8.1,0.1-12.1c-0.6-0.3-1.3-0.5-2.1-0.5H4.8c-2.7,0-4.8,2.2-4.8,4.8l0.2,13.6h16.3
		C16.5,31.9,16.6,30,16.6,28z"/>
	<path fill="#F9AE41" d="M33,15.7l-9.9-0.3c-1.2,0-2.3,0.4-3.1,1.1c-0.1,4.3-0.1,8.6-0.2,13c-0.1,1.4,0,2.9-0.1,4.3h17.4l0.5-13.2
		C37.7,18,35.6,15.8,33,15.7z"/>
</g>
</svg>
